G04*
G04 #@! TF.GenerationSoftware,Altium Limited,Altium Designer,21.0.8 (223)*
G04*
G04 Layer_Color=32896*
%FSAX25Y25*%
%MOIN*%
G70*
G04*
G04 #@! TF.SameCoordinates,3E0ABAED-EBEF-4259-B410-402A04598C71*
G04*
G04*
G04 #@! TF.FilePolarity,Positive*
G04*
G01*
G75*
%ADD10C,0.00787*%
%ADD11C,0.00984*%
%ADD13C,0.00394*%
%ADD15C,0.00598*%
%ADD20C,0.01000*%
D10*
X0739509Y3532495D02*
X0741083D01*
X0739509D02*
Y3534070D01*
Y3548243D02*
X0741083D01*
X0739509Y3546669D02*
Y3548243D01*
X0753682Y3532495D02*
X0755257D01*
Y3534070D01*
X0753682Y3548243D02*
X0755257D01*
Y3546669D02*
Y3548243D01*
X0650828Y3511531D02*
Y3513243D01*
Y3511531D02*
X0652540D01*
X0650828Y3531275D02*
Y3532987D01*
X0652540D01*
X0670572D02*
X0672284D01*
Y3531275D02*
Y3532987D01*
Y3511531D02*
Y3513243D01*
X0670572Y3511531D02*
X0672284D01*
D11*
X0760694Y3545094D02*
G03*
X0760694Y3545094I-0000492J0000000D01*
G01*
X0672186Y3508972D02*
G03*
X0672186Y3508972I-0000492J0000000D01*
G01*
D13*
X0627146Y3554779D02*
X0634626D01*
Y3558716D01*
X0627146D02*
X0634626D01*
X0627146Y3554779D02*
Y3558716D01*
Y3544818D02*
X0634626D01*
Y3548755D01*
X0627146D02*
X0634626D01*
X0627146Y3544818D02*
Y3548755D01*
X0677501Y3521472D02*
X0684981D01*
Y3525409D01*
X0677501D02*
X0684981D01*
X0677501Y3521472D02*
Y3525409D01*
X0887303Y3554858D02*
X0894784D01*
Y3558795D01*
X0887303D02*
X0894784D01*
X0887303Y3554858D02*
Y3558795D01*
Y3544779D02*
X0894784D01*
Y3548716D01*
X0887303D02*
X0894784D01*
X0887303Y3544779D02*
Y3548716D01*
X0800177Y3554700D02*
X0807658D01*
Y3558637D01*
X0800177D02*
X0807658D01*
X0800177Y3554700D02*
Y3558637D01*
Y3544582D02*
X0807658D01*
Y3548519D01*
X0800177D02*
X0807658D01*
X0800177Y3544582D02*
Y3548519D01*
X0725099Y3555054D02*
X0732579D01*
X0725099Y3551118D02*
Y3555054D01*
Y3551118D02*
X0732579D01*
Y3555054D01*
X0713839Y3554740D02*
X0721319D01*
Y3558677D01*
X0713839D02*
X0721319D01*
X0713839Y3554740D02*
Y3558677D01*
Y3544543D02*
X0721319D01*
Y3548480D01*
X0713839D02*
X0721319D01*
X0713839Y3544543D02*
Y3548480D01*
X0837123Y3572892D02*
X0841060D01*
Y3565411D02*
Y3572892D01*
X0837123Y3565411D02*
X0841060D01*
X0837123D02*
Y3572892D01*
X0837173Y3557576D02*
X0841110D01*
X0837173D02*
Y3565057D01*
X0841110D01*
Y3557576D02*
Y3565057D01*
X0842726Y3568480D02*
X0849154D01*
X0842737Y3561787D02*
X0849164D01*
X0850634Y3572887D02*
X0854571D01*
Y3565407D02*
Y3572887D01*
X0850634Y3565407D02*
X0854571D01*
X0850634D02*
Y3572887D01*
X0850673Y3557533D02*
X0854610D01*
X0850673D02*
Y3565013D01*
X0854610D01*
Y3557533D02*
Y3565013D01*
X0826870Y3572299D02*
X0830807D01*
Y3564819D02*
Y3572299D01*
X0826870Y3564819D02*
X0830807D01*
X0826870D02*
Y3572299D01*
X0818050Y3567931D02*
X0824478D01*
X0818061Y3561238D02*
X0824488D01*
X0812225Y3556984D02*
X0816162D01*
X0812225D02*
Y3564464D01*
X0816162D01*
Y3556984D02*
Y3564464D01*
X0812225Y3572338D02*
X0816162D01*
Y3564858D02*
Y3572338D01*
X0812225Y3564858D02*
X0816162D01*
X0812225D02*
Y3572338D01*
X0826910Y3556944D02*
X0830847D01*
X0826910D02*
Y3564425D01*
X0830847D01*
Y3556944D02*
Y3564425D01*
X0763721Y3543125D02*
X0771202D01*
Y3547062D01*
X0763721D02*
X0771202D01*
X0763721Y3543125D02*
Y3547062D01*
X0763702Y3556117D02*
Y3563598D01*
Y3556117D02*
X0767639D01*
Y3563598D01*
X0763702D02*
X0767639D01*
X0763215Y3556149D02*
Y3563629D01*
X0759278D02*
X0763215D01*
X0759278Y3556149D02*
Y3563629D01*
Y3556149D02*
X0763215D01*
X0746186Y3555724D02*
Y3563204D01*
X0742249D02*
X0746186D01*
X0742249Y3555724D02*
Y3563204D01*
Y3555724D02*
X0746186D01*
X0746595Y3555724D02*
Y3563204D01*
Y3555724D02*
X0750532D01*
Y3563204D01*
X0746595D02*
X0750532D01*
X0678918Y3570694D02*
X0682855D01*
Y3563214D02*
Y3570694D01*
X0678918Y3563214D02*
X0682855D01*
X0678918D02*
Y3570694D01*
X0670088Y3566354D02*
X0676516D01*
X0670099Y3559661D02*
X0676526D01*
X0664429Y3555399D02*
X0668366D01*
X0664429D02*
Y3562880D01*
X0668366D01*
Y3555399D02*
Y3562880D01*
X0664429Y3570754D02*
X0668366D01*
Y3563274D02*
Y3570754D01*
X0664429Y3563274D02*
X0668366D01*
X0664429D02*
Y3570754D01*
X0678918Y3555379D02*
X0682855D01*
X0678918D02*
Y3562859D01*
X0682855D01*
Y3555379D02*
Y3562859D01*
X0597619Y3567732D02*
X0601556D01*
Y3560252D02*
Y3567732D01*
X0597619Y3560252D02*
X0601556D01*
X0597619D02*
Y3567732D01*
X0589498Y3563322D02*
X0595926D01*
X0589508Y3556630D02*
X0595936D01*
X0584054Y3552415D02*
X0587991D01*
X0584054D02*
Y3559896D01*
X0587991D01*
Y3552415D02*
Y3559896D01*
X0584076Y3567693D02*
X0588013D01*
Y3560212D02*
Y3567693D01*
X0584076Y3560212D02*
X0588013D01*
X0584076D02*
Y3567693D01*
X0597619Y3552417D02*
X0601556D01*
X0597619D02*
Y3559897D01*
X0601556D01*
Y3552417D02*
Y3559897D01*
D15*
X0733076Y3547142D02*
Y3550290D01*
X0731502D01*
X0730977Y3549766D01*
Y3548716D01*
X0731502Y3548191D01*
X0733076D01*
X0732027D02*
X0730977Y3547142D01*
X0729928Y3550290D02*
X0727829D01*
Y3549766D01*
X0729928Y3547667D01*
Y3547142D01*
X0726779Y3547667D02*
X0726254Y3547142D01*
X0725205D01*
X0724680Y3547667D01*
Y3549766D01*
X0725205Y3550290D01*
X0726254D01*
X0726779Y3549766D01*
Y3549241D01*
X0726254Y3548716D01*
X0724680D01*
X0634651Y3549898D02*
Y3553046D01*
X0633077D01*
X0632552Y3552522D01*
Y3551472D01*
X0633077Y3550947D01*
X0634651D01*
X0633602D02*
X0632552Y3549898D01*
X0631502Y3553046D02*
X0629403D01*
Y3552522D01*
X0631502Y3550422D01*
Y3549898D01*
X0628354Y3552522D02*
X0627829Y3553046D01*
X0626780D01*
X0626255Y3552522D01*
Y3551997D01*
X0626780Y3551472D01*
X0626255Y3550947D01*
Y3550422D01*
X0626780Y3549898D01*
X0627829D01*
X0628354Y3550422D01*
Y3550947D01*
X0627829Y3551472D01*
X0628354Y3551997D01*
Y3552522D01*
X0627829Y3551472D02*
X0626780D01*
X0634257Y3560134D02*
Y3563282D01*
X0632683D01*
X0632158Y3562758D01*
Y3561708D01*
X0632683Y3561184D01*
X0634257D01*
X0633208D02*
X0632158Y3560134D01*
X0631109Y3563282D02*
X0629010D01*
Y3562758D01*
X0631109Y3560659D01*
Y3560134D01*
X0627960Y3563282D02*
X0625861D01*
Y3562758D01*
X0627960Y3560659D01*
Y3560134D01*
X0721535Y3549382D02*
Y3552531D01*
X0719961D01*
X0719436Y3552006D01*
Y3550957D01*
X0719961Y3550432D01*
X0721535D01*
X0720486D02*
X0719436Y3549382D01*
X0718387Y3552531D02*
X0716288D01*
Y3552006D01*
X0718387Y3549907D01*
Y3549382D01*
X0713139Y3552531D02*
X0714189Y3552006D01*
X0715238Y3550957D01*
Y3549907D01*
X0714713Y3549382D01*
X0713664D01*
X0713139Y3549907D01*
Y3550432D01*
X0713664Y3550957D01*
X0715238D01*
X0721381Y3560099D02*
Y3563248D01*
X0719807D01*
X0719282Y3562724D01*
Y3561674D01*
X0719807Y3561149D01*
X0721381D01*
X0720331D02*
X0719282Y3560099D01*
X0718232Y3563248D02*
X0716133D01*
Y3562724D01*
X0718232Y3560624D01*
Y3560099D01*
X0712985Y3563248D02*
X0715084D01*
Y3561674D01*
X0714034Y3562199D01*
X0713510D01*
X0712985Y3561674D01*
Y3560624D01*
X0713510Y3560099D01*
X0714559D01*
X0715084Y3560624D01*
X0807628Y3549826D02*
Y3552974D01*
X0806054D01*
X0805529Y3552449D01*
Y3551400D01*
X0806054Y3550875D01*
X0807628D01*
X0806579D02*
X0805529Y3549826D01*
X0804480Y3552974D02*
X0802381D01*
Y3552449D01*
X0804480Y3550351D01*
Y3549826D01*
X0799757D02*
Y3552974D01*
X0801331Y3551400D01*
X0799232D01*
X0808594Y3559664D02*
Y3562812D01*
X0807019D01*
X0806495Y3562288D01*
Y3561238D01*
X0807019Y3560713D01*
X0808594D01*
X0807544D02*
X0806495Y3559664D01*
X0805445Y3562812D02*
X0803346D01*
Y3562288D01*
X0805445Y3560189D01*
Y3559664D01*
X0802296Y3562288D02*
X0801772Y3562812D01*
X0800722D01*
X0800197Y3562288D01*
Y3561763D01*
X0800722Y3561238D01*
X0801247D01*
X0800722D01*
X0800197Y3560713D01*
Y3560189D01*
X0800722Y3559664D01*
X0801772D01*
X0802296Y3560189D01*
X0894928Y3550109D02*
Y3553257D01*
X0893353D01*
X0892829Y3552733D01*
Y3551683D01*
X0893353Y3551159D01*
X0894928D01*
X0893878D02*
X0892829Y3550109D01*
X0891779Y3553257D02*
X0889680D01*
Y3552733D01*
X0891779Y3550634D01*
Y3550109D01*
X0886532D02*
X0888630D01*
X0886532Y3552208D01*
Y3552733D01*
X0887056Y3553257D01*
X0888106D01*
X0888630Y3552733D01*
X0894182Y3560106D02*
Y3563254D01*
X0892607D01*
X0892083Y3562730D01*
Y3561680D01*
X0892607Y3561155D01*
X0894182D01*
X0893132D02*
X0892083Y3560106D01*
X0891033Y3563254D02*
X0888934D01*
Y3562730D01*
X0891033Y3560630D01*
Y3560106D01*
X0887884D02*
X0886835D01*
X0887360D01*
Y3563254D01*
X0887884Y3562730D01*
X0736752Y3536040D02*
X0734128D01*
X0733604Y3536565D01*
Y3537614D01*
X0734128Y3538139D01*
X0736752D01*
X0733604Y3539188D02*
Y3540238D01*
Y3539713D01*
X0736752D01*
X0736228Y3539188D01*
Y3541812D02*
X0736752Y3542337D01*
Y3543386D01*
X0736228Y3543911D01*
X0735703D01*
X0735178Y3543386D01*
X0734653Y3543911D01*
X0734128D01*
X0733604Y3543386D01*
Y3542337D01*
X0734128Y3541812D01*
X0734653D01*
X0735178Y3542337D01*
X0735703Y3541812D01*
X0736228D01*
X0735178Y3542337D02*
Y3543386D01*
X0746989Y3564518D02*
X0750138D01*
Y3566092D01*
X0749613Y3566617D01*
X0748564D01*
X0748039Y3566092D01*
Y3564518D01*
Y3565567D02*
X0746989Y3566617D01*
X0750138Y3569765D02*
X0749613Y3568716D01*
X0748564Y3567666D01*
X0747514D01*
X0746989Y3568191D01*
Y3569241D01*
X0747514Y3569765D01*
X0748039D01*
X0748564Y3569241D01*
Y3567666D01*
X0749613Y3570815D02*
X0750138Y3571339D01*
Y3572389D01*
X0749613Y3572914D01*
X0749089D01*
X0748564Y3572389D01*
X0748039Y3572914D01*
X0747514D01*
X0746989Y3572389D01*
Y3571339D01*
X0747514Y3570815D01*
X0748039D01*
X0748564Y3571339D01*
X0749089Y3570815D01*
X0749613D01*
X0748564Y3571339D02*
Y3572389D01*
X0742659Y3564518D02*
X0745807D01*
Y3566092D01*
X0745283Y3566617D01*
X0744233D01*
X0743708Y3566092D01*
Y3564518D01*
Y3565567D02*
X0742659Y3566617D01*
X0745807Y3569765D02*
X0745283Y3568716D01*
X0744233Y3567666D01*
X0743184D01*
X0742659Y3568191D01*
Y3569241D01*
X0743184Y3569765D01*
X0743708D01*
X0744233Y3569241D01*
Y3567666D01*
X0745807Y3570815D02*
Y3572914D01*
X0745283D01*
X0743184Y3570815D01*
X0742659D01*
X0763919Y3564911D02*
X0767067D01*
Y3566486D01*
X0766542Y3567010D01*
X0765493D01*
X0764968Y3566486D01*
Y3564911D01*
Y3565961D02*
X0763919Y3567010D01*
X0767067Y3570159D02*
X0766542Y3569109D01*
X0765493Y3568060D01*
X0764443D01*
X0763919Y3568585D01*
Y3569634D01*
X0764443Y3570159D01*
X0764968D01*
X0765493Y3569634D01*
Y3568060D01*
X0767067Y3573307D02*
X0766542Y3572258D01*
X0765493Y3571209D01*
X0764443D01*
X0763919Y3571733D01*
Y3572783D01*
X0764443Y3573307D01*
X0764968D01*
X0765493Y3572783D01*
Y3571209D01*
X0759588Y3564911D02*
X0762737D01*
Y3566486D01*
X0762212Y3567010D01*
X0761162D01*
X0760637Y3566486D01*
Y3564911D01*
Y3565961D02*
X0759588Y3567010D01*
X0762737Y3570159D02*
X0762212Y3569109D01*
X0761162Y3568060D01*
X0760113D01*
X0759588Y3568585D01*
Y3569634D01*
X0760113Y3570159D01*
X0760637D01*
X0761162Y3569634D01*
Y3568060D01*
X0762737Y3573307D02*
Y3571209D01*
X0761162D01*
X0761687Y3572258D01*
Y3572783D01*
X0761162Y3573307D01*
X0760113D01*
X0759588Y3572783D01*
Y3571733D01*
X0760113Y3571209D01*
X0771952Y3548102D02*
Y3551251D01*
X0770377D01*
X0769853Y3550726D01*
Y3549677D01*
X0770377Y3549152D01*
X0771952D01*
X0770902D02*
X0769853Y3548102D01*
X0766704Y3551251D02*
X0767754Y3550726D01*
X0768803Y3549677D01*
Y3548627D01*
X0768278Y3548102D01*
X0767229D01*
X0766704Y3548627D01*
Y3549152D01*
X0767229Y3549677D01*
X0768803D01*
X0764080Y3548102D02*
Y3551251D01*
X0765655Y3549677D01*
X0763555D01*
X0684155Y3526688D02*
Y3529837D01*
X0682580D01*
X0682056Y3529312D01*
Y3528262D01*
X0682580Y3527737D01*
X0684155D01*
X0683105D02*
X0682056Y3526688D01*
X0679432D02*
Y3529837D01*
X0681006Y3528262D01*
X0678907D01*
X0677857Y3526688D02*
X0676808D01*
X0677333D01*
Y3529837D01*
X0677857Y3529312D01*
X0672300Y3539349D02*
Y3536725D01*
X0671775Y3536200D01*
X0670726D01*
X0670201Y3536725D01*
Y3539349D01*
X0669151Y3536200D02*
X0668102D01*
X0668627D01*
Y3539349D01*
X0669151Y3538824D01*
X0666528D02*
X0666003Y3539349D01*
X0664953D01*
X0664429Y3538824D01*
Y3538299D01*
X0664953Y3537774D01*
X0665478D01*
X0664953D01*
X0664429Y3537249D01*
Y3536725D01*
X0664953Y3536200D01*
X0666003D01*
X0666528Y3536725D01*
X0595282Y3569582D02*
X0593183D01*
X0594232D01*
Y3566433D01*
X0590559D02*
Y3569582D01*
X0592133Y3568007D01*
X0590034D01*
X0676778Y3573125D02*
X0674679D01*
X0675728D01*
Y3569976D01*
X0673629Y3572600D02*
X0673104Y3573125D01*
X0672055D01*
X0671530Y3572600D01*
Y3572075D01*
X0672055Y3571551D01*
X0672579D01*
X0672055D01*
X0671530Y3571026D01*
Y3570501D01*
X0672055Y3569976D01*
X0673104D01*
X0673629Y3570501D01*
X0824809Y3574700D02*
X0822710D01*
X0823760D01*
Y3571551D01*
X0819561D02*
X0821661D01*
X0819561Y3573650D01*
Y3574175D01*
X0820086Y3574700D01*
X0821136D01*
X0821661Y3574175D01*
X0847906Y3575093D02*
X0845807D01*
X0846857D01*
Y3571945D01*
X0844758D02*
X0843708D01*
X0844233D01*
Y3575093D01*
X0844758Y3574569D01*
X0584390Y3568927D02*
X0587539D01*
Y3570502D01*
X0587014Y3571026D01*
X0585965D01*
X0585440Y3570502D01*
Y3568927D01*
Y3569977D02*
X0584390Y3571026D01*
Y3574175D02*
Y3572076D01*
X0586490Y3574175D01*
X0587014D01*
X0587539Y3573650D01*
Y3572601D01*
X0587014Y3572076D01*
Y3575225D02*
X0587539Y3575749D01*
Y3576799D01*
X0587014Y3577324D01*
X0584915D01*
X0584390Y3576799D01*
Y3575749D01*
X0584915Y3575225D01*
X0587014D01*
X0601712Y3576667D02*
X0598564D01*
Y3575093D01*
X0599088Y3574569D01*
X0600138D01*
X0600663Y3575093D01*
Y3576667D01*
Y3575618D02*
X0601712Y3574569D01*
Y3573519D02*
Y3572469D01*
Y3572994D01*
X0598564D01*
X0599088Y3573519D01*
X0601188Y3570895D02*
X0601712Y3570370D01*
Y3569321D01*
X0601188Y3568796D01*
X0599088D01*
X0598564Y3569321D01*
Y3570370D01*
X0599088Y3570895D01*
X0599613D01*
X0600138Y3570370D01*
Y3568796D01*
X0584390Y3543206D02*
X0587539D01*
Y3544780D01*
X0587014Y3545304D01*
X0585965D01*
X0585440Y3544780D01*
Y3543206D01*
Y3544255D02*
X0584390Y3545304D01*
Y3546354D02*
Y3547404D01*
Y3546879D01*
X0587539D01*
X0587014Y3546354D01*
Y3548978D02*
X0587539Y3549503D01*
Y3550552D01*
X0587014Y3551077D01*
X0586490D01*
X0585965Y3550552D01*
X0585440Y3551077D01*
X0584915D01*
X0584390Y3550552D01*
Y3549503D01*
X0584915Y3548978D01*
X0585440D01*
X0585965Y3549503D01*
X0586490Y3548978D01*
X0587014D01*
X0585965Y3549503D02*
Y3550552D01*
X0601319Y3551077D02*
X0598170D01*
Y3549503D01*
X0598695Y3548978D01*
X0599744D01*
X0600269Y3549503D01*
Y3551077D01*
Y3550027D02*
X0601319Y3548978D01*
Y3547928D02*
Y3546879D01*
Y3547404D01*
X0598170D01*
X0598695Y3547928D01*
X0598170Y3545304D02*
Y3543206D01*
X0598695D01*
X0600794Y3545304D01*
X0601319D01*
X0664706Y3571946D02*
X0667854D01*
Y3573520D01*
X0667329Y3574045D01*
X0666280D01*
X0665755Y3573520D01*
Y3571946D01*
Y3572995D02*
X0664706Y3574045D01*
Y3575094D02*
Y3576144D01*
Y3575619D01*
X0667854D01*
X0667329Y3575094D01*
X0667854Y3579817D02*
X0667329Y3578768D01*
X0666280Y3577718D01*
X0665230D01*
X0664706Y3578243D01*
Y3579292D01*
X0665230Y3579817D01*
X0665755D01*
X0666280Y3579292D01*
Y3577718D01*
X0682421Y3579817D02*
X0679272D01*
Y3578243D01*
X0679797Y3577718D01*
X0680847D01*
X0681371Y3578243D01*
Y3579817D01*
Y3578768D02*
X0682421Y3577718D01*
Y3576669D02*
Y3575619D01*
Y3576144D01*
X0679272D01*
X0679797Y3576669D01*
X0679272Y3571946D02*
Y3574045D01*
X0680847D01*
X0680322Y3572995D01*
Y3572470D01*
X0680847Y3571946D01*
X0681896D01*
X0682421Y3572470D01*
Y3573520D01*
X0681896Y3574045D01*
X0664706Y3546355D02*
X0667854D01*
Y3547929D01*
X0667329Y3548454D01*
X0666280D01*
X0665755Y3547929D01*
Y3546355D01*
Y3547404D02*
X0664706Y3548454D01*
Y3549504D02*
Y3550553D01*
Y3550028D01*
X0667854D01*
X0667329Y3549504D01*
X0664706Y3553702D02*
X0667854D01*
X0666280Y3552127D01*
Y3554227D01*
X0682815Y3554227D02*
X0679666D01*
Y3552652D01*
X0680191Y3552127D01*
X0681240D01*
X0681765Y3552652D01*
Y3554227D01*
Y3553177D02*
X0682815Y3552127D01*
Y3551078D02*
Y3550028D01*
Y3550553D01*
X0679666D01*
X0680191Y3551078D01*
Y3548454D02*
X0679666Y3547929D01*
Y3546880D01*
X0680191Y3546355D01*
X0680716D01*
X0681240Y3546880D01*
Y3547404D01*
Y3546880D01*
X0681765Y3546355D01*
X0682290D01*
X0682815Y3546880D01*
Y3547929D01*
X0682290Y3548454D01*
X0812737Y3573127D02*
X0815886D01*
Y3574701D01*
X0815361Y3575226D01*
X0814311D01*
X0813787Y3574701D01*
Y3573127D01*
Y3574176D02*
X0812737Y3575226D01*
Y3576275D02*
Y3577325D01*
Y3576800D01*
X0815886D01*
X0815361Y3576275D01*
X0812737Y3580998D02*
Y3578899D01*
X0814836Y3580998D01*
X0815361D01*
X0815886Y3580473D01*
Y3579424D01*
X0815361Y3578899D01*
X0830275Y3579934D02*
X0827127D01*
Y3578360D01*
X0827651Y3577835D01*
X0828701D01*
X0829226Y3578360D01*
Y3579934D01*
Y3578885D02*
X0830275Y3577835D01*
Y3576786D02*
Y3575736D01*
Y3576261D01*
X0827127D01*
X0827651Y3576786D01*
X0830275Y3574162D02*
Y3573112D01*
Y3573637D01*
X0827127D01*
X0827651Y3574162D01*
X0812722Y3547776D02*
X0815870D01*
Y3549350D01*
X0815345Y3549875D01*
X0814296D01*
X0813771Y3549350D01*
Y3547776D01*
Y3548825D02*
X0812722Y3549875D01*
Y3550924D02*
Y3551974D01*
Y3551449D01*
X0815870D01*
X0815345Y3550924D01*
Y3553548D02*
X0815870Y3554073D01*
Y3555122D01*
X0815345Y3555647D01*
X0813246D01*
X0812722Y3555122D01*
Y3554073D01*
X0813246Y3553548D01*
X0815345D01*
X0830677Y3555663D02*
X0827528D01*
Y3554089D01*
X0828053Y3553564D01*
X0829103D01*
X0829628Y3554089D01*
Y3555663D01*
Y3554613D02*
X0830677Y3553564D01*
X0830152Y3552514D02*
X0830677Y3551989D01*
Y3550940D01*
X0830152Y3550415D01*
X0828053D01*
X0827528Y3550940D01*
Y3551989D01*
X0828053Y3552514D01*
X0828578D01*
X0829103Y3551989D01*
Y3550415D01*
X0837243Y3574285D02*
X0840391D01*
Y3575859D01*
X0839866Y3576384D01*
X0838817D01*
X0838292Y3575859D01*
Y3574285D01*
Y3575334D02*
X0837243Y3576384D01*
X0839866Y3577433D02*
X0840391Y3577958D01*
Y3579007D01*
X0839866Y3579532D01*
X0839342D01*
X0838817Y3579007D01*
X0838292Y3579532D01*
X0837767D01*
X0837243Y3579007D01*
Y3577958D01*
X0837767Y3577433D01*
X0838292D01*
X0838817Y3577958D01*
X0839342Y3577433D01*
X0839866D01*
X0838817Y3577958D02*
Y3579007D01*
X0854468Y3579293D02*
X0851320D01*
Y3577718D01*
X0851844Y3577193D01*
X0852894D01*
X0853419Y3577718D01*
Y3579293D01*
Y3578243D02*
X0854468Y3577193D01*
X0851320Y3576144D02*
Y3574045D01*
X0851844D01*
X0853944Y3576144D01*
X0854468D01*
X0837585Y3551013D02*
X0840734D01*
Y3552587D01*
X0840209Y3553112D01*
X0839160D01*
X0838635Y3552587D01*
Y3551013D01*
Y3552063D02*
X0837585Y3553112D01*
X0840734Y3556261D02*
X0840209Y3555211D01*
X0839160Y3554161D01*
X0838110D01*
X0837585Y3554686D01*
Y3555736D01*
X0838110Y3556261D01*
X0838635D01*
X0839160Y3555736D01*
Y3554161D01*
X0854468Y3556064D02*
X0851320D01*
Y3554490D01*
X0851844Y3553965D01*
X0852894D01*
X0853419Y3554490D01*
Y3556064D01*
Y3555015D02*
X0854468Y3553965D01*
X0851320Y3550817D02*
Y3552916D01*
X0852894D01*
X0852369Y3551866D01*
Y3551341D01*
X0852894Y3550817D01*
X0853944D01*
X0854468Y3551341D01*
Y3552391D01*
X0853944Y3552916D01*
D20*
X0848918Y3569779D02*
G03*
X0848918Y3569779I-0000473J0000000D01*
G01*
X0824242Y3569230D02*
G03*
X0824242Y3569230I-0000473J0000000D01*
G01*
X0676280Y3567653D02*
G03*
X0676280Y3567653I-0000473J0000000D01*
G01*
X0595690Y3564621D02*
G03*
X0595690Y3564621I-0000473J0000000D01*
G01*
M02*
