G04*
G04 #@! TF.GenerationSoftware,Altium Limited,Altium Designer,21.0.8 (223)*
G04*
G04 Layer_Color=128*
%FSAX25Y25*%
%MOIN*%
G70*
G04*
G04 #@! TF.SameCoordinates,3E0ABAED-EBEF-4259-B410-402A04598C71*
G04*
G04*
G04 #@! TF.FilePolarity,Positive*
G04*
G01*
G75*
%ADD21R,0.01968X0.02362*%
%ADD27R,0.02362X0.01968*%
%ADD112R,0.02638X0.01181*%
%ADD114R,0.03764X0.00758*%
G04:AMPARAMS|DCode=115|XSize=37.64mil|YSize=7.58mil|CornerRadius=3.79mil|HoleSize=0mil|Usage=FLASHONLY|Rotation=180.000|XOffset=0mil|YOffset=0mil|HoleType=Round|Shape=RoundedRectangle|*
%AMROUNDEDRECTD115*
21,1,0.03764,0.00000,0,0,180.0*
21,1,0.03006,0.00758,0,0,180.0*
1,1,0.00758,-0.01503,0.00000*
1,1,0.00758,0.01503,0.00000*
1,1,0.00758,0.01503,0.00000*
1,1,0.00758,-0.01503,0.00000*
%
%ADD115ROUNDEDRECTD115*%
G04:AMPARAMS|DCode=116|XSize=7.58mil|YSize=37.64mil|CornerRadius=3.79mil|HoleSize=0mil|Usage=FLASHONLY|Rotation=180.000|XOffset=0mil|YOffset=0mil|HoleType=Round|Shape=RoundedRectangle|*
%AMROUNDEDRECTD116*
21,1,0.00758,0.03006,0,0,180.0*
21,1,0.00000,0.03764,0,0,180.0*
1,1,0.00758,0.00000,0.01503*
1,1,0.00758,0.00000,0.01503*
1,1,0.00758,0.00000,-0.01503*
1,1,0.00758,0.00000,-0.01503*
%
%ADD116ROUNDEDRECTD116*%
%ADD117R,0.10827X0.10827*%
%ADD118R,0.02559X0.01102*%
%ADD119R,0.01102X0.02559*%
%ADD124R,0.06723X0.06723*%
D21*
X0632855Y3556747D02*
D03*
X0628918D02*
D03*
X0632855Y3546787D02*
D03*
X0628918D02*
D03*
X0683210Y3523440D02*
D03*
X0679273D02*
D03*
X0893012Y3556826D02*
D03*
X0889075D02*
D03*
X0893012Y3546748D02*
D03*
X0889075D02*
D03*
X0805886Y3556669D02*
D03*
X0801949D02*
D03*
X0805886Y3546551D02*
D03*
X0801949D02*
D03*
X0726870Y3553086D02*
D03*
X0730807D02*
D03*
X0719548Y3556708D02*
D03*
X0715611D02*
D03*
X0719548Y3546511D02*
D03*
X0715611D02*
D03*
X0769430Y3545094D02*
D03*
X0765493D02*
D03*
D27*
X0839091Y3571120D02*
D03*
Y3567183D02*
D03*
X0839141Y3559348D02*
D03*
Y3563285D02*
D03*
X0852602Y3571115D02*
D03*
Y3567178D02*
D03*
X0852642Y3559304D02*
D03*
Y3563241D02*
D03*
X0828839Y3570527D02*
D03*
Y3566590D02*
D03*
X0814193Y3558755D02*
D03*
Y3562692D02*
D03*
Y3570567D02*
D03*
Y3566629D02*
D03*
X0828878Y3558716D02*
D03*
Y3562653D02*
D03*
X0765670Y3557889D02*
D03*
Y3561826D02*
D03*
X0761247Y3561857D02*
D03*
Y3557920D02*
D03*
X0744218Y3561432D02*
D03*
Y3557495D02*
D03*
X0748564Y3557495D02*
D03*
Y3561432D02*
D03*
X0680887Y3568922D02*
D03*
Y3564985D02*
D03*
X0666397Y3557171D02*
D03*
Y3561108D02*
D03*
Y3568982D02*
D03*
Y3565045D02*
D03*
X0680887Y3557151D02*
D03*
Y3561087D02*
D03*
X0599588Y3565960D02*
D03*
Y3562023D02*
D03*
X0586023Y3554187D02*
D03*
Y3558124D02*
D03*
X0586045Y3565921D02*
D03*
Y3561984D02*
D03*
X0599588Y3554189D02*
D03*
Y3558126D02*
D03*
D112*
X0848465Y3563165D02*
D03*
Y3565133D02*
D03*
Y3567102D02*
D03*
X0843465D02*
D03*
Y3565133D02*
D03*
Y3563165D02*
D03*
X0823789Y3562616D02*
D03*
Y3564584D02*
D03*
Y3566553D02*
D03*
X0818789D02*
D03*
Y3564584D02*
D03*
Y3562616D02*
D03*
X0675827Y3561039D02*
D03*
Y3563007D02*
D03*
Y3564976D02*
D03*
X0670827D02*
D03*
Y3563007D02*
D03*
Y3561039D02*
D03*
X0595236Y3558007D02*
D03*
Y3559976D02*
D03*
Y3561945D02*
D03*
X0590237D02*
D03*
Y3559976D02*
D03*
Y3558007D02*
D03*
D114*
X0755170Y3545094D02*
D03*
D115*
Y3543519D02*
D03*
Y3541944D02*
D03*
Y3540369D02*
D03*
Y3538794D02*
D03*
Y3537220D02*
D03*
Y3535645D02*
D03*
X0739595D02*
D03*
Y3537220D02*
D03*
Y3538794D02*
D03*
Y3540369D02*
D03*
Y3541944D02*
D03*
Y3543519D02*
D03*
Y3545094D02*
D03*
D116*
X0752107Y3532582D02*
D03*
X0750532D02*
D03*
X0748957D02*
D03*
X0747383D02*
D03*
X0745808D02*
D03*
X0744233D02*
D03*
X0742658D02*
D03*
Y3548157D02*
D03*
X0744233D02*
D03*
X0745808D02*
D03*
X0747383D02*
D03*
X0748957D02*
D03*
X0750532D02*
D03*
X0752107D02*
D03*
D117*
X0661556Y3522259D02*
D03*
D118*
X0671202Y3515369D02*
D03*
Y3517338D02*
D03*
Y3519306D02*
D03*
Y3521275D02*
D03*
Y3523243D02*
D03*
Y3525212D02*
D03*
Y3527180D02*
D03*
Y3529149D02*
D03*
X0651910D02*
D03*
Y3527180D02*
D03*
Y3525212D02*
D03*
Y3523243D02*
D03*
Y3521275D02*
D03*
Y3519306D02*
D03*
Y3517338D02*
D03*
Y3515369D02*
D03*
D119*
X0668446Y3531905D02*
D03*
X0666477D02*
D03*
X0664509D02*
D03*
X0662540D02*
D03*
X0660572D02*
D03*
X0658603D02*
D03*
X0656635D02*
D03*
X0654666D02*
D03*
Y3512613D02*
D03*
X0656635D02*
D03*
X0658603D02*
D03*
X0660572D02*
D03*
X0662540D02*
D03*
X0664509D02*
D03*
X0666477D02*
D03*
X0668446D02*
D03*
D124*
X0747383Y3540369D02*
D03*
M02*
