G04*
G04 #@! TF.GenerationSoftware,Altium Limited,Altium Designer,21.0.8 (223)*
G04*
G04 Layer_Color=8421504*
%FSAX25Y25*%
%MOIN*%
G70*
G04*
G04 #@! TF.SameCoordinates,3E0ABAED-EBEF-4259-B410-402A04598C71*
G04*
G04*
G04 #@! TF.FilePolarity,Positive*
G04*
G01*
G75*
%ADD21R,0.01968X0.02362*%
%ADD22R,0.02992X0.09449*%
%ADD23R,0.02362X0.02520*%
G04:AMPARAMS|DCode=24|XSize=9.84mil|YSize=23.62mil|CornerRadius=2.46mil|HoleSize=0mil|Usage=FLASHONLY|Rotation=180.000|XOffset=0mil|YOffset=0mil|HoleType=Round|Shape=RoundedRectangle|*
%AMROUNDEDRECTD24*
21,1,0.00984,0.01870,0,0,180.0*
21,1,0.00492,0.02362,0,0,180.0*
1,1,0.00492,-0.00246,0.00935*
1,1,0.00492,0.00246,0.00935*
1,1,0.00492,0.00246,-0.00935*
1,1,0.00492,-0.00246,-0.00935*
%
%ADD24ROUNDEDRECTD24*%
G04:AMPARAMS|DCode=25|XSize=9.84mil|YSize=23.62mil|CornerRadius=2.46mil|HoleSize=0mil|Usage=FLASHONLY|Rotation=90.000|XOffset=0mil|YOffset=0mil|HoleType=Round|Shape=RoundedRectangle|*
%AMROUNDEDRECTD25*
21,1,0.00984,0.01870,0,0,90.0*
21,1,0.00492,0.02362,0,0,90.0*
1,1,0.00492,0.00935,0.00246*
1,1,0.00492,0.00935,-0.00246*
1,1,0.00492,-0.00935,-0.00246*
1,1,0.00492,-0.00935,0.00246*
%
%ADD25ROUNDEDRECTD25*%
%ADD26R,0.02520X0.02362*%
%ADD27R,0.02362X0.01968*%
%ADD28R,0.03937X0.01850*%
%ADD29R,0.05709X0.01181*%
%ADD30R,0.12992X0.06299*%
%ADD31R,0.04724X0.06299*%
%ADD32R,0.04134X0.06693*%
%ADD33R,0.03150X0.03150*%
%ADD34R,0.08661X0.02362*%
%ADD35R,0.08661X0.02362*%
%ADD36P,0.25055X4X90.0*%
G04:AMPARAMS|DCode=37|XSize=9.84mil|YSize=29.53mil|CornerRadius=0mil|HoleSize=0mil|Usage=FLASHONLY|Rotation=45.000|XOffset=0mil|YOffset=0mil|HoleType=Round|Shape=Round|*
%AMOVALD37*
21,1,0.01968,0.00984,0.00000,0.00000,135.0*
1,1,0.00984,0.00696,-0.00696*
1,1,0.00984,-0.00696,0.00696*
%
%ADD37OVALD37*%

G04:AMPARAMS|DCode=38|XSize=9.84mil|YSize=29.53mil|CornerRadius=0mil|HoleSize=0mil|Usage=FLASHONLY|Rotation=135.000|XOffset=0mil|YOffset=0mil|HoleType=Round|Shape=Round|*
%AMOVALD38*
21,1,0.01968,0.00984,0.00000,0.00000,225.0*
1,1,0.00984,0.00696,0.00696*
1,1,0.00984,-0.00696,-0.00696*
%
%ADD38OVALD38*%

%ADD39R,0.03150X0.03150*%
%ADD40R,0.02362X0.04134*%
%ADD41R,0.03150X0.03543*%
G04:AMPARAMS|DCode=42|XSize=25.2mil|YSize=23.62mil|CornerRadius=0mil|HoleSize=0mil|Usage=FLASHONLY|Rotation=45.000|XOffset=0mil|YOffset=0mil|HoleType=Round|Shape=Rectangle|*
%AMROTATEDRECTD42*
4,1,4,-0.00056,-0.01726,-0.01726,-0.00056,0.00056,0.01726,0.01726,0.00056,-0.00056,-0.01726,0.0*
%
%ADD42ROTATEDRECTD42*%

G04:AMPARAMS|DCode=43|XSize=23.62mil|YSize=19.68mil|CornerRadius=0mil|HoleSize=0mil|Usage=FLASHONLY|Rotation=45.000|XOffset=0mil|YOffset=0mil|HoleType=Round|Shape=Rectangle|*
%AMROTATEDRECTD43*
4,1,4,-0.00139,-0.01531,-0.01531,-0.00139,0.00139,0.01531,0.01531,0.00139,-0.00139,-0.01531,0.0*
%
%ADD43ROTATEDRECTD43*%

%ADD44R,0.02362X0.03543*%
G04:AMPARAMS|DCode=45|XSize=23.62mil|YSize=19.68mil|CornerRadius=0mil|HoleSize=0mil|Usage=FLASHONLY|Rotation=315.000|XOffset=0mil|YOffset=0mil|HoleType=Round|Shape=Rectangle|*
%AMROTATEDRECTD45*
4,1,4,-0.01531,0.00139,-0.00139,0.01531,0.01531,-0.00139,0.00139,-0.01531,-0.01531,0.00139,0.0*
%
%ADD45ROTATEDRECTD45*%

%ADD46R,0.03543X0.02362*%
%ADD47R,0.01890X0.03740*%
%ADD48R,0.05118X0.03543*%
%ADD49R,0.04724X0.05512*%
%ADD50R,0.04102X0.05480*%
%ADD51R,0.01575X0.05512*%
%ADD52R,0.03740X0.01890*%
%ADD53R,0.03543X0.05118*%
%ADD54R,0.09449X0.02992*%
D21*
X0691870Y3237299D02*
D03*
X0687933D02*
D03*
X0691477Y3217220D02*
D03*
X0687540D02*
D03*
X0625729Y3359346D02*
D03*
X0629666D02*
D03*
X0626910Y3416550D02*
D03*
X0622973D02*
D03*
X0626516Y3434267D02*
D03*
X0622579D02*
D03*
X0598288Y3422614D02*
D03*
X0602225D02*
D03*
X0633997Y3354535D02*
D03*
X0630060D02*
D03*
X0676438Y3422338D02*
D03*
X0680375D02*
D03*
X0715905Y3415768D02*
D03*
X0711968D02*
D03*
X0715887Y3434405D02*
D03*
X0711950D02*
D03*
X0750536Y3428531D02*
D03*
X0754473D02*
D03*
X0778879Y3416413D02*
D03*
X0774942D02*
D03*
X0778879Y3434995D02*
D03*
X0774942D02*
D03*
X0860375Y3435960D02*
D03*
X0856438D02*
D03*
X0861950Y3417928D02*
D03*
X0858013D02*
D03*
X0832422Y3421983D02*
D03*
X0836359D02*
D03*
X0901320Y3353362D02*
D03*
X0897383D02*
D03*
X0901320Y3343125D02*
D03*
X0897383D02*
D03*
X0901713Y3333283D02*
D03*
X0897776D02*
D03*
X0901713Y3323440D02*
D03*
X0897776D02*
D03*
X0766871Y3248362D02*
D03*
X0770808D02*
D03*
X0772934Y3225605D02*
D03*
X0768997D02*
D03*
X0685926Y3187141D02*
D03*
X0689863D02*
D03*
X0685926Y3177220D02*
D03*
X0689863D02*
D03*
D22*
X0745608Y3565842D02*
D03*
X0740608D02*
D03*
X0735607D02*
D03*
X0730608D02*
D03*
X0725607D02*
D03*
X0745608Y3581196D02*
D03*
X0740608D02*
D03*
X0735607D02*
D03*
X0730608D02*
D03*
X0725607D02*
D03*
X0659744Y3565842D02*
D03*
X0654744D02*
D03*
X0649744D02*
D03*
X0644744D02*
D03*
X0639744D02*
D03*
X0659744Y3581196D02*
D03*
X0654744D02*
D03*
X0649744D02*
D03*
X0644744D02*
D03*
X0639744D02*
D03*
X0834978Y3565842D02*
D03*
X0829978D02*
D03*
X0824977D02*
D03*
X0819977D02*
D03*
X0814977D02*
D03*
X0834978Y3581196D02*
D03*
X0829978D02*
D03*
X0824977D02*
D03*
X0819977D02*
D03*
X0814977D02*
D03*
X0918836Y3565842D02*
D03*
X0913836D02*
D03*
X0908836D02*
D03*
X0903836D02*
D03*
X0898836D02*
D03*
X0918836Y3581196D02*
D03*
X0913836D02*
D03*
X0908836D02*
D03*
X0903836D02*
D03*
X0898836D02*
D03*
D23*
X0729194Y3160842D02*
D03*
X0725414D02*
D03*
X0729194Y3165566D02*
D03*
X0725414D02*
D03*
X0729194Y3170291D02*
D03*
X0725414D02*
D03*
X0729194Y3175015D02*
D03*
X0725414D02*
D03*
X0729194Y3179739D02*
D03*
X0725414D02*
D03*
X0729194Y3184464D02*
D03*
X0725414D02*
D03*
X0821358Y3251984D02*
D03*
X0825138D02*
D03*
X0835138D02*
D03*
X0838918D02*
D03*
X0591871Y3442456D02*
D03*
X0595650D02*
D03*
X0591871Y3446983D02*
D03*
X0595650D02*
D03*
X0670099Y3441747D02*
D03*
X0673879D02*
D03*
X0670099Y3446275D02*
D03*
X0673879D02*
D03*
X0744233Y3448046D02*
D03*
X0748013D02*
D03*
X0744233Y3452613D02*
D03*
X0748013D02*
D03*
X0828462Y3445153D02*
D03*
X0832241D02*
D03*
X0828446Y3440606D02*
D03*
X0832225D02*
D03*
X0802461Y3244621D02*
D03*
X0798682D02*
D03*
X0806241Y3251472D02*
D03*
X0802461D02*
D03*
X0783446Y3224661D02*
D03*
X0779666D02*
D03*
X0783446Y3229188D02*
D03*
X0779666D02*
D03*
X0776202Y3206550D02*
D03*
X0772422D02*
D03*
X0786359Y3188204D02*
D03*
X0790139D02*
D03*
X0736084Y3128165D02*
D03*
X0732304D02*
D03*
D24*
X0831870Y3257240D02*
D03*
X0833839D02*
D03*
X0835807D02*
D03*
Y3262555D02*
D03*
X0833839D02*
D03*
X0831870D02*
D03*
X0818327Y3257240D02*
D03*
X0820296D02*
D03*
X0822264D02*
D03*
Y3262555D02*
D03*
X0820296D02*
D03*
X0818327D02*
D03*
X0841555Y3205606D02*
D03*
Y3200488D02*
D03*
X0833760Y3193401D02*
D03*
Y3188283D02*
D03*
D25*
X0836398Y3259897D02*
D03*
X0831280D02*
D03*
X0822855D02*
D03*
X0817737D02*
D03*
X0844213Y3201078D02*
D03*
Y3203047D02*
D03*
Y3205015D02*
D03*
X0838898D02*
D03*
Y3203047D02*
D03*
Y3201078D02*
D03*
X0836418Y3188873D02*
D03*
Y3190842D02*
D03*
Y3192810D02*
D03*
X0831103D02*
D03*
Y3190842D02*
D03*
Y3188873D02*
D03*
D26*
X0849666Y3203756D02*
D03*
Y3207535D02*
D03*
X0841516Y3191669D02*
D03*
Y3195448D02*
D03*
X0621005Y3445212D02*
D03*
Y3441432D02*
D03*
X0621792Y3427495D02*
D03*
Y3423716D02*
D03*
X0639115Y3437889D02*
D03*
Y3441668D02*
D03*
X0639509Y3419779D02*
D03*
Y3423558D02*
D03*
X0710375Y3426511D02*
D03*
Y3422731D02*
D03*
X0728879Y3418795D02*
D03*
Y3422574D02*
D03*
Y3437633D02*
D03*
Y3441413D02*
D03*
X0710375Y3445350D02*
D03*
Y3441570D02*
D03*
X0773367Y3427357D02*
D03*
Y3423578D02*
D03*
Y3445940D02*
D03*
Y3442160D02*
D03*
X0791879Y3419637D02*
D03*
Y3423417D02*
D03*
X0791971Y3438306D02*
D03*
Y3442086D02*
D03*
X0874942Y3438794D02*
D03*
Y3442574D02*
D03*
X0856438Y3428479D02*
D03*
Y3424700D02*
D03*
X0874942Y3421157D02*
D03*
Y3424936D02*
D03*
X0794312Y3240921D02*
D03*
Y3244700D02*
D03*
X0789745Y3240921D02*
D03*
Y3244700D02*
D03*
X0785139Y3240921D02*
D03*
Y3244700D02*
D03*
X0769036Y3217692D02*
D03*
Y3213913D02*
D03*
X0769784Y3198401D02*
D03*
Y3202180D02*
D03*
X0746005Y3150409D02*
D03*
Y3154188D02*
D03*
X0712737Y3151944D02*
D03*
Y3155724D02*
D03*
X0856438Y3443125D02*
D03*
Y3446905D02*
D03*
D27*
X0630847Y3430330D02*
D03*
Y3434267D02*
D03*
X0631241Y3412613D02*
D03*
Y3416550D02*
D03*
X0588976Y3376590D02*
D03*
Y3372653D02*
D03*
X0583997Y3376590D02*
D03*
Y3372653D02*
D03*
X0720217Y3411629D02*
D03*
Y3415566D02*
D03*
Y3430468D02*
D03*
Y3434405D02*
D03*
X0783209Y3431058D02*
D03*
Y3434995D02*
D03*
Y3412476D02*
D03*
Y3416413D02*
D03*
X0864705Y3432417D02*
D03*
Y3436354D02*
D03*
X0866280Y3413991D02*
D03*
Y3417928D02*
D03*
X0798091Y3368401D02*
D03*
Y3364464D02*
D03*
X0804509Y3368991D02*
D03*
Y3365054D02*
D03*
X0812186Y3368598D02*
D03*
Y3364661D02*
D03*
X0819351Y3368401D02*
D03*
Y3364464D02*
D03*
X0825650Y3368519D02*
D03*
Y3364582D02*
D03*
X0832304Y3368283D02*
D03*
Y3364346D02*
D03*
X0839548Y3367928D02*
D03*
Y3363992D02*
D03*
X0846044Y3368164D02*
D03*
Y3364228D02*
D03*
X0779194Y3246550D02*
D03*
Y3242613D02*
D03*
X0759194Y3227456D02*
D03*
Y3231393D02*
D03*
X0750326Y3154099D02*
D03*
Y3150162D02*
D03*
X0741674Y3154267D02*
D03*
Y3150330D02*
D03*
X0749351Y3280605D02*
D03*
Y3284542D02*
D03*
D28*
X0626910Y3426196D02*
D03*
Y3421078D02*
D03*
X0633997Y3423637D02*
D03*
Y3421078D02*
D03*
Y3426196D02*
D03*
X0626910Y3423637D02*
D03*
X0626516Y3444109D02*
D03*
Y3438991D02*
D03*
X0633603Y3441550D02*
D03*
Y3438991D02*
D03*
Y3444109D02*
D03*
X0626516Y3441550D02*
D03*
X0715887Y3425212D02*
D03*
Y3420094D02*
D03*
X0722973Y3422653D02*
D03*
Y3420094D02*
D03*
Y3425212D02*
D03*
X0715887Y3422653D02*
D03*
Y3444050D02*
D03*
Y3438932D02*
D03*
X0722973Y3441491D02*
D03*
Y3438932D02*
D03*
Y3444050D02*
D03*
X0715887Y3441491D02*
D03*
X0778879Y3426058D02*
D03*
Y3420940D02*
D03*
X0785965Y3423499D02*
D03*
Y3420940D02*
D03*
Y3426058D02*
D03*
X0778879Y3423499D02*
D03*
X0778879Y3444641D02*
D03*
Y3439523D02*
D03*
X0785965Y3442082D02*
D03*
Y3439523D02*
D03*
Y3444641D02*
D03*
X0778879Y3442082D02*
D03*
X0861950Y3445605D02*
D03*
Y3440487D02*
D03*
X0869036Y3443047D02*
D03*
Y3440487D02*
D03*
Y3445605D02*
D03*
X0861950Y3443047D02*
D03*
X0862343Y3427377D02*
D03*
Y3422259D02*
D03*
X0869430Y3424818D02*
D03*
Y3422259D02*
D03*
Y3427377D02*
D03*
X0862343Y3424818D02*
D03*
D29*
X0584906Y3428873D02*
D03*
Y3430842D02*
D03*
Y3432810D02*
D03*
Y3434779D02*
D03*
Y3436747D02*
D03*
X0602228D02*
D03*
Y3434779D02*
D03*
Y3432810D02*
D03*
Y3430842D02*
D03*
Y3428873D02*
D03*
X0663173Y3428283D02*
D03*
Y3430251D02*
D03*
Y3432220D02*
D03*
Y3434188D02*
D03*
Y3436157D02*
D03*
X0680496D02*
D03*
Y3434188D02*
D03*
Y3432220D02*
D03*
Y3430251D02*
D03*
Y3428283D02*
D03*
X0737386Y3434542D02*
D03*
Y3436511D02*
D03*
Y3438479D02*
D03*
Y3440448D02*
D03*
Y3442416D02*
D03*
X0754709D02*
D03*
Y3440448D02*
D03*
Y3438479D02*
D03*
Y3436511D02*
D03*
Y3434542D02*
D03*
X0821599Y3427574D02*
D03*
Y3429542D02*
D03*
Y3431511D02*
D03*
Y3433479D02*
D03*
Y3435448D02*
D03*
X0838921D02*
D03*
Y3433479D02*
D03*
Y3431511D02*
D03*
Y3429542D02*
D03*
Y3427574D02*
D03*
D30*
X0649351Y3382495D02*
D03*
D31*
X0658406Y3357298D02*
D03*
X0649351D02*
D03*
X0640296D02*
D03*
D32*
X0589961Y3568204D02*
D03*
Y3578834D02*
D03*
X0583465Y3568204D02*
D03*
Y3578834D02*
D03*
X0677008Y3568204D02*
D03*
Y3578834D02*
D03*
X0670512Y3568204D02*
D03*
Y3578834D02*
D03*
X0764016Y3568204D02*
D03*
Y3578834D02*
D03*
X0757520Y3568204D02*
D03*
Y3578834D02*
D03*
X0849016Y3568204D02*
D03*
Y3578834D02*
D03*
X0842520Y3568204D02*
D03*
Y3578834D02*
D03*
D33*
X0798013Y3358519D02*
D03*
Y3352220D02*
D03*
X0804863Y3358519D02*
D03*
Y3352220D02*
D03*
X0811753Y3358480D02*
D03*
Y3352180D02*
D03*
X0818643Y3358480D02*
D03*
Y3352180D02*
D03*
X0825493Y3358401D02*
D03*
Y3352102D02*
D03*
X0832343Y3358401D02*
D03*
Y3352102D02*
D03*
X0839194Y3358361D02*
D03*
Y3352062D02*
D03*
X0846005Y3358322D02*
D03*
Y3352023D02*
D03*
X0764351Y3198401D02*
D03*
Y3204306D02*
D03*
D34*
X0779233Y3254562D02*
D03*
Y3274562D02*
D03*
X0758760D02*
D03*
D35*
Y3269562D02*
D03*
Y3264562D02*
D03*
Y3259562D02*
D03*
Y3254562D02*
D03*
X0779233Y3269562D02*
D03*
Y3264562D02*
D03*
Y3259562D02*
D03*
Y3279562D02*
D03*
Y3284562D02*
D03*
X0758760Y3279562D02*
D03*
Y3284562D02*
D03*
Y3289562D02*
D03*
X0779233D02*
D03*
D36*
X0810130Y3219059D02*
D03*
D37*
X0787093Y3221216D02*
D03*
X0788485Y3222608D02*
D03*
X0789877Y3224000D02*
D03*
X0791269Y3225392D02*
D03*
X0792661Y3226784D02*
D03*
X0794053Y3228176D02*
D03*
X0795445Y3229568D02*
D03*
X0796837Y3230960D02*
D03*
X0798229Y3232352D02*
D03*
X0799621Y3233744D02*
D03*
X0801013Y3235136D02*
D03*
X0802405Y3236528D02*
D03*
X0803796Y3237920D02*
D03*
X0805188Y3239311D02*
D03*
X0806580Y3240704D02*
D03*
X0807972Y3242095D02*
D03*
X0833167Y3216901D02*
D03*
X0831775Y3215509D02*
D03*
X0830383Y3214117D02*
D03*
X0828991Y3212725D02*
D03*
X0827599Y3211333D02*
D03*
X0826207Y3209941D02*
D03*
X0824815Y3208549D02*
D03*
X0823423Y3207158D02*
D03*
X0822031Y3205766D02*
D03*
X0820639Y3204374D02*
D03*
X0819247Y3202982D02*
D03*
X0817855Y3201590D02*
D03*
X0816463Y3200198D02*
D03*
X0815071Y3198806D02*
D03*
X0813679Y3197414D02*
D03*
X0812287Y3196022D02*
D03*
D38*
Y3242095D02*
D03*
X0813679Y3240704D02*
D03*
X0815071Y3239311D02*
D03*
X0816463Y3237920D02*
D03*
X0817855Y3236528D02*
D03*
X0819247Y3235136D02*
D03*
X0820639Y3233744D02*
D03*
X0822031Y3232352D02*
D03*
X0823423Y3230960D02*
D03*
X0824815Y3229568D02*
D03*
X0826207Y3228176D02*
D03*
X0827599Y3226784D02*
D03*
X0828991Y3225392D02*
D03*
X0830383Y3224000D02*
D03*
X0831775Y3222608D02*
D03*
X0833167Y3221216D02*
D03*
X0807972Y3196022D02*
D03*
X0806580Y3197414D02*
D03*
X0805188Y3198806D02*
D03*
X0803796Y3200198D02*
D03*
X0802405Y3201590D02*
D03*
X0801013Y3202982D02*
D03*
X0799621Y3204374D02*
D03*
X0798229Y3205766D02*
D03*
X0796837Y3207158D02*
D03*
X0795445Y3208549D02*
D03*
X0794053Y3209941D02*
D03*
X0792661Y3211333D02*
D03*
X0791269Y3212725D02*
D03*
X0789877Y3214117D02*
D03*
X0788485Y3215509D02*
D03*
X0787093Y3216901D02*
D03*
D39*
X0806162Y3257023D02*
D03*
X0800257D02*
D03*
X0786398Y3182810D02*
D03*
X0792304D02*
D03*
X0770217Y3127574D02*
D03*
X0764312D02*
D03*
D40*
X0772658Y3231295D02*
D03*
X0768918D02*
D03*
X0765178D02*
D03*
Y3242515D02*
D03*
X0768918D02*
D03*
X0772658D02*
D03*
D41*
X0779961Y3219523D02*
D03*
Y3212239D02*
D03*
X0774253D02*
D03*
Y3219523D02*
D03*
D42*
X0787459Y3205529D02*
D03*
X0784787Y3208202D02*
D03*
D43*
X0784444Y3202324D02*
D03*
X0781660Y3205108D02*
D03*
D44*
X0752146Y3198361D02*
D03*
X0758052D02*
D03*
X0764115Y3121078D02*
D03*
X0770020D02*
D03*
D45*
X0795243Y3188820D02*
D03*
X0798027Y3191604D02*
D03*
D46*
X0786398Y3170842D02*
D03*
Y3176747D02*
D03*
X0736084Y3133283D02*
D03*
Y3139188D02*
D03*
D47*
X0742265Y3132692D02*
D03*
X0749745D02*
D03*
X0746005Y3143322D02*
D03*
X0749745D02*
D03*
X0742265D02*
D03*
X0746005Y3132692D02*
D03*
D48*
X0728485Y3134267D02*
D03*
Y3141747D02*
D03*
X0668643Y3358283D02*
D03*
Y3365763D02*
D03*
D49*
X0730060Y3120783D02*
D03*
X0755257D02*
D03*
D50*
X0738623Y3110448D02*
D03*
X0746694D02*
D03*
D51*
X0737540Y3121668D02*
D03*
X0745217D02*
D03*
X0747776D02*
D03*
X0742658D02*
D03*
X0740099D02*
D03*
D52*
X0718524Y3155961D02*
D03*
Y3148480D02*
D03*
X0729154D02*
D03*
Y3155961D02*
D03*
X0718524Y3152220D02*
D03*
D53*
X0630650Y3366354D02*
D03*
X0623170D02*
D03*
D54*
X0597186Y3403519D02*
D03*
Y3398519D02*
D03*
Y3393519D02*
D03*
Y3388519D02*
D03*
Y3383519D02*
D03*
X0581832Y3403519D02*
D03*
Y3398519D02*
D03*
Y3393519D02*
D03*
Y3388519D02*
D03*
Y3383519D02*
D03*
M02*
