G04*
G04 #@! TF.GenerationSoftware,Altium Limited,Altium Designer,21.0.8 (223)*
G04*
G04 Layer_Color=8388736*
%FSAX25Y25*%
%MOIN*%
G70*
G04*
G04 #@! TF.SameCoordinates,3E0ABAED-EBEF-4259-B410-402A04598C71*
G04*
G04*
G04 #@! TF.FilePolarity,Negative*
G04*
G01*
G75*
%ADD41R,0.03150X0.03543*%
%ADD55R,0.02769X0.03162*%
%ADD56R,0.03792X0.10249*%
%ADD57R,0.03162X0.03320*%
G04:AMPARAMS|DCode=58|XSize=17.84mil|YSize=31.62mil|CornerRadius=6.46mil|HoleSize=0mil|Usage=FLASHONLY|Rotation=180.000|XOffset=0mil|YOffset=0mil|HoleType=Round|Shape=RoundedRectangle|*
%AMROUNDEDRECTD58*
21,1,0.01784,0.01870,0,0,180.0*
21,1,0.00492,0.03162,0,0,180.0*
1,1,0.01292,-0.00246,0.00935*
1,1,0.01292,0.00246,0.00935*
1,1,0.01292,0.00246,-0.00935*
1,1,0.01292,-0.00246,-0.00935*
%
%ADD58ROUNDEDRECTD58*%
G04:AMPARAMS|DCode=59|XSize=17.84mil|YSize=31.62mil|CornerRadius=6.46mil|HoleSize=0mil|Usage=FLASHONLY|Rotation=90.000|XOffset=0mil|YOffset=0mil|HoleType=Round|Shape=RoundedRectangle|*
%AMROUNDEDRECTD59*
21,1,0.01784,0.01870,0,0,90.0*
21,1,0.00492,0.03162,0,0,90.0*
1,1,0.01292,0.00935,0.00246*
1,1,0.01292,0.00935,-0.00246*
1,1,0.01292,-0.00935,-0.00246*
1,1,0.01292,-0.00935,0.00246*
%
%ADD59ROUNDEDRECTD59*%
%ADD60R,0.03320X0.03162*%
%ADD61R,0.03162X0.02769*%
%ADD62R,0.04737X0.02650*%
%ADD63R,0.06102X0.01575*%
%ADD64R,0.13792X0.07099*%
%ADD65R,0.05524X0.07099*%
%ADD66R,0.04934X0.07493*%
%ADD67R,0.03950X0.03950*%
%ADD68R,0.09461X0.03162*%
%ADD69R,0.09461X0.03162*%
%ADD70P,0.26186X4X90.0*%
G04:AMPARAMS|DCode=71|XSize=17.84mil|YSize=37.53mil|CornerRadius=0mil|HoleSize=0mil|Usage=FLASHONLY|Rotation=45.000|XOffset=0mil|YOffset=0mil|HoleType=Round|Shape=Round|*
%AMOVALD71*
21,1,0.01968,0.01784,0.00000,0.00000,135.0*
1,1,0.01784,0.00696,-0.00696*
1,1,0.01784,-0.00696,0.00696*
%
%ADD71OVALD71*%

G04:AMPARAMS|DCode=72|XSize=17.84mil|YSize=37.53mil|CornerRadius=0mil|HoleSize=0mil|Usage=FLASHONLY|Rotation=135.000|XOffset=0mil|YOffset=0mil|HoleType=Round|Shape=Round|*
%AMOVALD72*
21,1,0.01968,0.01784,0.00000,0.00000,225.0*
1,1,0.01784,0.00696,0.00696*
1,1,0.01784,-0.00696,-0.00696*
%
%ADD72OVALD72*%

%ADD73R,0.03950X0.03950*%
%ADD74R,0.03162X0.04934*%
G04:AMPARAMS|DCode=75|XSize=33.2mil|YSize=31.62mil|CornerRadius=0mil|HoleSize=0mil|Usage=FLASHONLY|Rotation=45.000|XOffset=0mil|YOffset=0mil|HoleType=Round|Shape=Rectangle|*
%AMROTATEDRECTD75*
4,1,4,-0.00056,-0.02292,-0.02292,-0.00056,0.00056,0.02292,0.02292,0.00056,-0.00056,-0.02292,0.0*
%
%ADD75ROTATEDRECTD75*%

G04:AMPARAMS|DCode=76|XSize=31.62mil|YSize=27.69mil|CornerRadius=0mil|HoleSize=0mil|Usage=FLASHONLY|Rotation=45.000|XOffset=0mil|YOffset=0mil|HoleType=Round|Shape=Rectangle|*
%AMROTATEDRECTD76*
4,1,4,-0.00139,-0.02097,-0.02097,-0.00139,0.00139,0.02097,0.02097,0.00139,-0.00139,-0.02097,0.0*
%
%ADD76ROTATEDRECTD76*%

%ADD77R,0.03162X0.04343*%
G04:AMPARAMS|DCode=78|XSize=31.62mil|YSize=27.69mil|CornerRadius=0mil|HoleSize=0mil|Usage=FLASHONLY|Rotation=315.000|XOffset=0mil|YOffset=0mil|HoleType=Round|Shape=Rectangle|*
%AMROTATEDRECTD78*
4,1,4,-0.02097,0.00139,-0.00139,0.02097,0.02097,-0.00139,0.00139,-0.02097,-0.02097,0.00139,0.0*
%
%ADD78ROTATEDRECTD78*%

%ADD79R,0.04343X0.03162*%
%ADD80R,0.02690X0.04540*%
%ADD81R,0.05918X0.04343*%
%ADD82R,0.05524X0.06312*%
%ADD83R,0.06902X0.08280*%
%ADD84R,0.01968X0.05906*%
%ADD85R,0.04540X0.02690*%
%ADD86R,0.04343X0.05918*%
%ADD87R,0.10249X0.03792*%
%ADD88R,0.06706X0.06706*%
%ADD89R,0.06706X0.06706*%
%ADD90C,0.06706*%
%ADD91C,0.13400*%
%ADD92O,0.08674X0.10642*%
%ADD93O,0.04737X0.07099*%
%ADD94R,0.00800X0.00800*%
%ADD95C,0.02572*%
D41*
X0779961Y3219523D02*
D03*
Y3212239D02*
D03*
X0774253D02*
D03*
Y3219523D02*
D03*
D55*
X0691870Y3237299D02*
D03*
X0687933D02*
D03*
X0691477Y3217220D02*
D03*
X0687540D02*
D03*
X0625729Y3359346D02*
D03*
X0629666D02*
D03*
X0626910Y3416550D02*
D03*
X0622973D02*
D03*
X0626516Y3434267D02*
D03*
X0622579D02*
D03*
X0598288Y3422614D02*
D03*
X0602225D02*
D03*
X0633997Y3354535D02*
D03*
X0630060D02*
D03*
X0676438Y3422338D02*
D03*
X0680375D02*
D03*
X0715905Y3415768D02*
D03*
X0711968D02*
D03*
X0715887Y3434405D02*
D03*
X0711950D02*
D03*
X0750536Y3428531D02*
D03*
X0754473D02*
D03*
X0778879Y3416413D02*
D03*
X0774942D02*
D03*
X0778879Y3434995D02*
D03*
X0774942D02*
D03*
X0860375Y3435960D02*
D03*
X0856438D02*
D03*
X0861950Y3417928D02*
D03*
X0858013D02*
D03*
X0832422Y3421983D02*
D03*
X0836359D02*
D03*
X0901320Y3353362D02*
D03*
X0897383D02*
D03*
X0901320Y3343125D02*
D03*
X0897383D02*
D03*
X0901713Y3333283D02*
D03*
X0897776D02*
D03*
X0901713Y3323440D02*
D03*
X0897776D02*
D03*
X0766871Y3248362D02*
D03*
X0770808D02*
D03*
X0772934Y3225605D02*
D03*
X0768997D02*
D03*
X0685926Y3187141D02*
D03*
X0689863D02*
D03*
X0685926Y3177220D02*
D03*
X0689863D02*
D03*
D56*
X0745608Y3565842D02*
D03*
X0740608D02*
D03*
X0735607D02*
D03*
X0730608D02*
D03*
X0725607D02*
D03*
X0745608Y3581196D02*
D03*
X0740608D02*
D03*
X0735607D02*
D03*
X0730608D02*
D03*
X0725607D02*
D03*
X0659744Y3565842D02*
D03*
X0654744D02*
D03*
X0649744D02*
D03*
X0644744D02*
D03*
X0639744D02*
D03*
X0659744Y3581196D02*
D03*
X0654744D02*
D03*
X0649744D02*
D03*
X0644744D02*
D03*
X0639744D02*
D03*
X0834978Y3565842D02*
D03*
X0829978D02*
D03*
X0824977D02*
D03*
X0819977D02*
D03*
X0814977D02*
D03*
X0834978Y3581196D02*
D03*
X0829978D02*
D03*
X0824977D02*
D03*
X0819977D02*
D03*
X0814977D02*
D03*
X0918836Y3565842D02*
D03*
X0913836D02*
D03*
X0908836D02*
D03*
X0903836D02*
D03*
X0898836D02*
D03*
X0918836Y3581196D02*
D03*
X0913836D02*
D03*
X0908836D02*
D03*
X0903836D02*
D03*
X0898836D02*
D03*
D57*
X0729194Y3160842D02*
D03*
X0725414D02*
D03*
X0729194Y3165566D02*
D03*
X0725414D02*
D03*
X0729194Y3170291D02*
D03*
X0725414D02*
D03*
X0729194Y3175015D02*
D03*
X0725414D02*
D03*
X0729194Y3179739D02*
D03*
X0725414D02*
D03*
X0729194Y3184464D02*
D03*
X0725414D02*
D03*
X0821358Y3251984D02*
D03*
X0825138D02*
D03*
X0835138D02*
D03*
X0838918D02*
D03*
X0591871Y3442456D02*
D03*
X0595650D02*
D03*
X0591871Y3446983D02*
D03*
X0595650D02*
D03*
X0670099Y3441747D02*
D03*
X0673879D02*
D03*
X0670099Y3446275D02*
D03*
X0673879D02*
D03*
X0744233Y3448046D02*
D03*
X0748013D02*
D03*
X0744233Y3452613D02*
D03*
X0748013D02*
D03*
X0828462Y3445153D02*
D03*
X0832241D02*
D03*
X0828446Y3440606D02*
D03*
X0832225D02*
D03*
X0802461Y3244621D02*
D03*
X0798682D02*
D03*
X0806241Y3251472D02*
D03*
X0802461D02*
D03*
X0783446Y3224661D02*
D03*
X0779666D02*
D03*
X0783446Y3229188D02*
D03*
X0779666D02*
D03*
X0776202Y3206550D02*
D03*
X0772422D02*
D03*
X0786359Y3188204D02*
D03*
X0790139D02*
D03*
X0736084Y3128165D02*
D03*
X0732304D02*
D03*
D58*
X0831870Y3257240D02*
D03*
X0833839D02*
D03*
X0835807D02*
D03*
Y3262555D02*
D03*
X0833839D02*
D03*
X0831870D02*
D03*
X0818327Y3257240D02*
D03*
X0820296D02*
D03*
X0822264D02*
D03*
Y3262555D02*
D03*
X0820296D02*
D03*
X0818327D02*
D03*
X0841555Y3205606D02*
D03*
Y3200488D02*
D03*
X0833760Y3193401D02*
D03*
Y3188283D02*
D03*
D59*
X0836398Y3259897D02*
D03*
X0831280D02*
D03*
X0822855D02*
D03*
X0817737D02*
D03*
X0844213Y3201078D02*
D03*
Y3203047D02*
D03*
Y3205015D02*
D03*
X0838898D02*
D03*
Y3203047D02*
D03*
Y3201078D02*
D03*
X0836418Y3188873D02*
D03*
Y3190842D02*
D03*
Y3192810D02*
D03*
X0831103D02*
D03*
Y3190842D02*
D03*
Y3188873D02*
D03*
D60*
X0849666Y3203756D02*
D03*
Y3207535D02*
D03*
X0841516Y3191669D02*
D03*
Y3195448D02*
D03*
X0621005Y3445212D02*
D03*
Y3441432D02*
D03*
X0621792Y3427495D02*
D03*
Y3423716D02*
D03*
X0639115Y3437889D02*
D03*
Y3441668D02*
D03*
X0639509Y3419779D02*
D03*
Y3423558D02*
D03*
X0710375Y3426511D02*
D03*
Y3422731D02*
D03*
X0728879Y3418795D02*
D03*
Y3422574D02*
D03*
Y3437633D02*
D03*
Y3441413D02*
D03*
X0710375Y3445350D02*
D03*
Y3441570D02*
D03*
X0773367Y3427357D02*
D03*
Y3423578D02*
D03*
Y3445940D02*
D03*
Y3442160D02*
D03*
X0791879Y3419637D02*
D03*
Y3423417D02*
D03*
X0791971Y3438306D02*
D03*
Y3442086D02*
D03*
X0874942Y3438794D02*
D03*
Y3442574D02*
D03*
X0856438Y3428479D02*
D03*
Y3424700D02*
D03*
X0874942Y3421157D02*
D03*
Y3424936D02*
D03*
X0794312Y3240921D02*
D03*
Y3244700D02*
D03*
X0789745Y3240921D02*
D03*
Y3244700D02*
D03*
X0785139Y3240921D02*
D03*
Y3244700D02*
D03*
X0769036Y3217692D02*
D03*
Y3213913D02*
D03*
X0769784Y3198401D02*
D03*
Y3202180D02*
D03*
X0746005Y3150409D02*
D03*
Y3154188D02*
D03*
X0712737Y3151944D02*
D03*
Y3155724D02*
D03*
X0856438Y3443125D02*
D03*
Y3446905D02*
D03*
D61*
X0630847Y3430330D02*
D03*
Y3434267D02*
D03*
X0631241Y3412613D02*
D03*
Y3416550D02*
D03*
X0588976Y3376590D02*
D03*
Y3372653D02*
D03*
X0583997Y3376590D02*
D03*
Y3372653D02*
D03*
X0720217Y3411629D02*
D03*
Y3415566D02*
D03*
Y3430468D02*
D03*
Y3434405D02*
D03*
X0783209Y3431058D02*
D03*
Y3434995D02*
D03*
Y3412476D02*
D03*
Y3416413D02*
D03*
X0864705Y3432417D02*
D03*
Y3436354D02*
D03*
X0866280Y3413991D02*
D03*
Y3417928D02*
D03*
X0798091Y3368401D02*
D03*
Y3364464D02*
D03*
X0804509Y3368991D02*
D03*
Y3365054D02*
D03*
X0812186Y3368598D02*
D03*
Y3364661D02*
D03*
X0819351Y3368401D02*
D03*
Y3364464D02*
D03*
X0825650Y3368519D02*
D03*
Y3364582D02*
D03*
X0832304Y3368283D02*
D03*
Y3364346D02*
D03*
X0839548Y3367928D02*
D03*
Y3363992D02*
D03*
X0846044Y3368164D02*
D03*
Y3364228D02*
D03*
X0779194Y3246550D02*
D03*
Y3242613D02*
D03*
X0759194Y3227456D02*
D03*
Y3231393D02*
D03*
X0750326Y3154099D02*
D03*
Y3150162D02*
D03*
X0741674Y3154267D02*
D03*
Y3150330D02*
D03*
X0749351Y3280605D02*
D03*
Y3284542D02*
D03*
D62*
X0626910Y3426196D02*
D03*
Y3421078D02*
D03*
X0633997Y3423637D02*
D03*
Y3421078D02*
D03*
Y3426196D02*
D03*
X0626910Y3423637D02*
D03*
X0626516Y3444109D02*
D03*
Y3438991D02*
D03*
X0633603Y3441550D02*
D03*
Y3438991D02*
D03*
Y3444109D02*
D03*
X0626516Y3441550D02*
D03*
X0715887Y3425212D02*
D03*
Y3420094D02*
D03*
X0722973Y3422653D02*
D03*
Y3420094D02*
D03*
Y3425212D02*
D03*
X0715887Y3422653D02*
D03*
Y3444050D02*
D03*
Y3438932D02*
D03*
X0722973Y3441491D02*
D03*
Y3438932D02*
D03*
Y3444050D02*
D03*
X0715887Y3441491D02*
D03*
X0778879Y3426058D02*
D03*
Y3420940D02*
D03*
X0785965Y3423499D02*
D03*
Y3420940D02*
D03*
Y3426058D02*
D03*
X0778879Y3423499D02*
D03*
X0778879Y3444641D02*
D03*
Y3439523D02*
D03*
X0785965Y3442082D02*
D03*
Y3439523D02*
D03*
Y3444641D02*
D03*
X0778879Y3442082D02*
D03*
X0861950Y3445605D02*
D03*
Y3440487D02*
D03*
X0869036Y3443047D02*
D03*
Y3440487D02*
D03*
Y3445605D02*
D03*
X0861950Y3443047D02*
D03*
X0862343Y3427377D02*
D03*
Y3422259D02*
D03*
X0869430Y3424818D02*
D03*
Y3422259D02*
D03*
Y3427377D02*
D03*
X0862343Y3424818D02*
D03*
D63*
X0584906Y3428873D02*
D03*
Y3430842D02*
D03*
Y3432810D02*
D03*
Y3434779D02*
D03*
Y3436747D02*
D03*
X0602228D02*
D03*
Y3434779D02*
D03*
Y3432810D02*
D03*
Y3430842D02*
D03*
Y3428873D02*
D03*
X0663173Y3428283D02*
D03*
Y3430251D02*
D03*
Y3432220D02*
D03*
Y3434188D02*
D03*
Y3436157D02*
D03*
X0680496D02*
D03*
Y3434188D02*
D03*
Y3432220D02*
D03*
Y3430251D02*
D03*
Y3428283D02*
D03*
X0737386Y3434542D02*
D03*
Y3436511D02*
D03*
Y3438479D02*
D03*
Y3440448D02*
D03*
Y3442416D02*
D03*
X0754709D02*
D03*
Y3440448D02*
D03*
Y3438479D02*
D03*
Y3436511D02*
D03*
Y3434542D02*
D03*
X0821599Y3427574D02*
D03*
Y3429542D02*
D03*
Y3431511D02*
D03*
Y3433479D02*
D03*
Y3435448D02*
D03*
X0838921D02*
D03*
Y3433479D02*
D03*
Y3431511D02*
D03*
Y3429542D02*
D03*
Y3427574D02*
D03*
D64*
X0649351Y3382495D02*
D03*
D65*
X0658406Y3357298D02*
D03*
X0649351D02*
D03*
X0640296D02*
D03*
D66*
X0589961Y3568204D02*
D03*
Y3578834D02*
D03*
X0583465Y3568204D02*
D03*
Y3578834D02*
D03*
X0677008Y3568204D02*
D03*
Y3578834D02*
D03*
X0670512Y3568204D02*
D03*
Y3578834D02*
D03*
X0764016Y3568204D02*
D03*
Y3578834D02*
D03*
X0757520Y3568204D02*
D03*
Y3578834D02*
D03*
X0849016Y3568204D02*
D03*
Y3578834D02*
D03*
X0842520Y3568204D02*
D03*
Y3578834D02*
D03*
D67*
X0798013Y3358519D02*
D03*
Y3352220D02*
D03*
X0804863Y3358519D02*
D03*
Y3352220D02*
D03*
X0811753Y3358480D02*
D03*
Y3352180D02*
D03*
X0818643Y3358480D02*
D03*
Y3352180D02*
D03*
X0825493Y3358401D02*
D03*
Y3352102D02*
D03*
X0832343Y3358401D02*
D03*
Y3352102D02*
D03*
X0839194Y3358361D02*
D03*
Y3352062D02*
D03*
X0846005Y3358322D02*
D03*
Y3352023D02*
D03*
X0764351Y3198401D02*
D03*
Y3204306D02*
D03*
D68*
X0779233Y3254562D02*
D03*
Y3274562D02*
D03*
X0758760D02*
D03*
D69*
Y3269562D02*
D03*
Y3264562D02*
D03*
Y3259562D02*
D03*
Y3254562D02*
D03*
X0779233Y3269562D02*
D03*
Y3264562D02*
D03*
Y3259562D02*
D03*
Y3279562D02*
D03*
Y3284562D02*
D03*
X0758760Y3279562D02*
D03*
Y3284562D02*
D03*
Y3289562D02*
D03*
X0779233D02*
D03*
D70*
X0810130Y3219059D02*
D03*
D71*
X0787093Y3221216D02*
D03*
X0788485Y3222608D02*
D03*
X0789877Y3224000D02*
D03*
X0791269Y3225392D02*
D03*
X0792661Y3226784D02*
D03*
X0794053Y3228176D02*
D03*
X0795445Y3229568D02*
D03*
X0796837Y3230960D02*
D03*
X0798229Y3232352D02*
D03*
X0799621Y3233744D02*
D03*
X0801013Y3235136D02*
D03*
X0802405Y3236528D02*
D03*
X0803796Y3237920D02*
D03*
X0805188Y3239311D02*
D03*
X0806580Y3240704D02*
D03*
X0807972Y3242095D02*
D03*
X0833167Y3216901D02*
D03*
X0831775Y3215509D02*
D03*
X0830383Y3214117D02*
D03*
X0828991Y3212725D02*
D03*
X0827599Y3211333D02*
D03*
X0826207Y3209941D02*
D03*
X0824815Y3208549D02*
D03*
X0823423Y3207158D02*
D03*
X0822031Y3205766D02*
D03*
X0820639Y3204374D02*
D03*
X0819247Y3202982D02*
D03*
X0817855Y3201590D02*
D03*
X0816463Y3200198D02*
D03*
X0815071Y3198806D02*
D03*
X0813679Y3197414D02*
D03*
X0812287Y3196022D02*
D03*
D72*
Y3242095D02*
D03*
X0813679Y3240704D02*
D03*
X0815071Y3239311D02*
D03*
X0816463Y3237920D02*
D03*
X0817855Y3236528D02*
D03*
X0819247Y3235136D02*
D03*
X0820639Y3233744D02*
D03*
X0822031Y3232352D02*
D03*
X0823423Y3230960D02*
D03*
X0824815Y3229568D02*
D03*
X0826207Y3228176D02*
D03*
X0827599Y3226784D02*
D03*
X0828991Y3225392D02*
D03*
X0830383Y3224000D02*
D03*
X0831775Y3222608D02*
D03*
X0833167Y3221216D02*
D03*
X0807972Y3196022D02*
D03*
X0806580Y3197414D02*
D03*
X0805188Y3198806D02*
D03*
X0803796Y3200198D02*
D03*
X0802405Y3201590D02*
D03*
X0801013Y3202982D02*
D03*
X0799621Y3204374D02*
D03*
X0798229Y3205766D02*
D03*
X0796837Y3207158D02*
D03*
X0795445Y3208549D02*
D03*
X0794053Y3209941D02*
D03*
X0792661Y3211333D02*
D03*
X0791269Y3212725D02*
D03*
X0789877Y3214117D02*
D03*
X0788485Y3215509D02*
D03*
X0787093Y3216901D02*
D03*
D73*
X0806162Y3257023D02*
D03*
X0800257D02*
D03*
X0786398Y3182810D02*
D03*
X0792304D02*
D03*
X0770217Y3127574D02*
D03*
X0764312D02*
D03*
D74*
X0772658Y3231295D02*
D03*
X0768918D02*
D03*
X0765178D02*
D03*
Y3242515D02*
D03*
X0768918D02*
D03*
X0772658D02*
D03*
D75*
X0787459Y3205529D02*
D03*
X0784787Y3208202D02*
D03*
D76*
X0784444Y3202324D02*
D03*
X0781660Y3205108D02*
D03*
D77*
X0752146Y3198361D02*
D03*
X0758052D02*
D03*
X0764115Y3121078D02*
D03*
X0770020D02*
D03*
D78*
X0795243Y3188820D02*
D03*
X0798027Y3191604D02*
D03*
D79*
X0786398Y3170842D02*
D03*
Y3176747D02*
D03*
X0736084Y3133283D02*
D03*
Y3139188D02*
D03*
D80*
X0742265Y3132692D02*
D03*
X0749745D02*
D03*
X0746005Y3143322D02*
D03*
X0749745D02*
D03*
X0742265D02*
D03*
X0746005Y3132692D02*
D03*
D81*
X0728485Y3134267D02*
D03*
Y3141747D02*
D03*
X0668643Y3358283D02*
D03*
Y3365763D02*
D03*
D82*
X0730060Y3120783D02*
D03*
X0755257D02*
D03*
D83*
X0738623Y3110448D02*
D03*
X0746694D02*
D03*
D84*
X0737540Y3121668D02*
D03*
X0745217D02*
D03*
X0747776D02*
D03*
X0742658D02*
D03*
X0740099D02*
D03*
D85*
X0718524Y3155961D02*
D03*
Y3148480D02*
D03*
X0729154D02*
D03*
Y3155961D02*
D03*
X0718524Y3152220D02*
D03*
D86*
X0630650Y3366354D02*
D03*
X0623170D02*
D03*
D87*
X0597186Y3403519D02*
D03*
Y3398519D02*
D03*
Y3393519D02*
D03*
Y3388519D02*
D03*
Y3383519D02*
D03*
X0581832Y3403519D02*
D03*
Y3398519D02*
D03*
Y3393519D02*
D03*
Y3388519D02*
D03*
Y3383519D02*
D03*
D88*
X0672973Y3500960D02*
D03*
X0586319D02*
D03*
X0846319D02*
D03*
X0750807D02*
D03*
X0670375Y3333283D02*
D03*
X0847776D02*
D03*
X0660375Y3131314D02*
D03*
D89*
X0621005Y3476747D02*
D03*
X0707619D02*
D03*
X0794233D02*
D03*
X0880847D02*
D03*
X0613406Y3437653D02*
D03*
X0729351Y3455685D02*
D03*
X0765887Y3437653D02*
D03*
X0848485D02*
D03*
X0889115Y3303283D02*
D03*
Y3213283D02*
D03*
X0739115Y3177283D02*
D03*
X0699115Y3443283D02*
D03*
X0699115Y3353283D02*
D03*
Y3267283D02*
D03*
D90*
X0611005Y3476747D02*
D03*
X0621005Y3486747D02*
D03*
X0611005D02*
D03*
X0621005Y3496747D02*
D03*
X0611005D02*
D03*
X0621005Y3506747D02*
D03*
X0611005D02*
D03*
X0621005Y3516747D02*
D03*
X0611005D02*
D03*
X0621005Y3526747D02*
D03*
X0611005D02*
D03*
X0621005Y3536747D02*
D03*
X0611005D02*
D03*
X0621005Y3546747D02*
D03*
X0611005D02*
D03*
X0621005Y3556747D02*
D03*
X0611005D02*
D03*
X0621005Y3566747D02*
D03*
X0611005D02*
D03*
X0697619Y3476747D02*
D03*
X0707619Y3486747D02*
D03*
X0697619D02*
D03*
X0707619Y3496747D02*
D03*
X0697619D02*
D03*
X0707619Y3506747D02*
D03*
X0697619D02*
D03*
X0707619Y3516747D02*
D03*
X0697619D02*
D03*
X0707619Y3526747D02*
D03*
X0697619D02*
D03*
X0707619Y3536747D02*
D03*
X0697619D02*
D03*
X0707619Y3546747D02*
D03*
X0697619D02*
D03*
X0707619Y3556747D02*
D03*
X0697619D02*
D03*
X0707619Y3566747D02*
D03*
X0697619D02*
D03*
X0784233Y3476747D02*
D03*
X0794233Y3486747D02*
D03*
X0784233D02*
D03*
X0794233Y3496747D02*
D03*
X0784233D02*
D03*
X0794233Y3506747D02*
D03*
X0784233D02*
D03*
X0794233Y3516747D02*
D03*
X0784233D02*
D03*
X0794233Y3526747D02*
D03*
X0784233D02*
D03*
X0794233Y3536747D02*
D03*
X0784233D02*
D03*
X0794233Y3546747D02*
D03*
X0784233D02*
D03*
X0794233Y3556747D02*
D03*
X0784233D02*
D03*
X0794233Y3566747D02*
D03*
X0784233D02*
D03*
X0870847Y3476747D02*
D03*
X0880847Y3486747D02*
D03*
X0870847D02*
D03*
X0880847Y3496747D02*
D03*
X0870847D02*
D03*
X0880847Y3506747D02*
D03*
X0870847D02*
D03*
X0880847Y3516747D02*
D03*
X0870847D02*
D03*
X0880847Y3526747D02*
D03*
X0870847D02*
D03*
X0880847Y3536747D02*
D03*
X0870847D02*
D03*
X0880847Y3546747D02*
D03*
X0870847D02*
D03*
X0880847Y3556747D02*
D03*
X0870847D02*
D03*
X0880847Y3566747D02*
D03*
X0870847D02*
D03*
X0613406Y3447653D02*
D03*
X0729351Y3465685D02*
D03*
X0765887Y3447653D02*
D03*
X0848485D02*
D03*
X0660375Y3333283D02*
D03*
X0650375D02*
D03*
X0640375D02*
D03*
X0889115Y3353283D02*
D03*
Y3343283D02*
D03*
Y3333283D02*
D03*
Y3323283D02*
D03*
Y3313283D02*
D03*
Y3283283D02*
D03*
Y3273283D02*
D03*
Y3263283D02*
D03*
Y3253283D02*
D03*
Y3243283D02*
D03*
Y3233283D02*
D03*
Y3223283D02*
D03*
X0757776Y3333283D02*
D03*
X0767776D02*
D03*
X0777776D02*
D03*
X0787776D02*
D03*
X0797776D02*
D03*
X0807776D02*
D03*
X0817776D02*
D03*
X0827776D02*
D03*
X0837776D02*
D03*
X0739115Y3297283D02*
D03*
Y3287283D02*
D03*
Y3277283D02*
D03*
Y3267283D02*
D03*
Y3257283D02*
D03*
Y3247283D02*
D03*
Y3237283D02*
D03*
Y3227283D02*
D03*
Y3217283D02*
D03*
Y3207283D02*
D03*
Y3197283D02*
D03*
Y3187283D02*
D03*
X0699115Y3373283D02*
D03*
Y3383282D02*
D03*
Y3393283D02*
D03*
Y3403283D02*
D03*
Y3413283D02*
D03*
Y3423283D02*
D03*
Y3433282D02*
D03*
X0699115Y3283283D02*
D03*
Y3293283D02*
D03*
Y3303283D02*
D03*
Y3313283D02*
D03*
Y3323283D02*
D03*
Y3333283D02*
D03*
Y3343283D02*
D03*
Y3257283D02*
D03*
Y3237283D02*
D03*
Y3227283D02*
D03*
Y3217283D02*
D03*
Y3207283D02*
D03*
Y3197283D02*
D03*
Y3187283D02*
D03*
Y3177283D02*
D03*
Y3247283D02*
D03*
X0650375Y3131314D02*
D03*
D91*
X0596202Y3293913D02*
D03*
Y3125409D02*
D03*
X0889115D02*
D03*
X0699115Y3163283D02*
D03*
X0759115Y3363283D02*
D03*
X0869115D02*
D03*
X0889115Y3158283D02*
D03*
D92*
X0612028Y3404818D02*
D03*
X0629745D02*
D03*
X0612028Y3379227D02*
D03*
X0629745D02*
D03*
X0708505Y3404818D02*
D03*
X0726221D02*
D03*
X0708505Y3379227D02*
D03*
X0726221D02*
D03*
X0785245Y3404818D02*
D03*
X0802961D02*
D03*
X0785245Y3379227D02*
D03*
X0802961D02*
D03*
X0871898Y3404818D02*
D03*
X0889615D02*
D03*
X0871898Y3379227D02*
D03*
X0889615D02*
D03*
D93*
X0731339Y3111237D02*
D03*
X0753977D02*
D03*
D94*
X0734674Y3119702D02*
D03*
X0750619D02*
D03*
D95*
X0819317Y3219059D02*
D03*
X0816254Y3215997D02*
D03*
X0813192Y3212934D02*
D03*
X0810130Y3209872D02*
D03*
X0816254Y3222121D02*
D03*
X0813192Y3219059D02*
D03*
X0810130Y3215997D02*
D03*
X0807068Y3212934D02*
D03*
X0813192Y3225183D02*
D03*
X0810130Y3222121D02*
D03*
X0807068Y3219059D02*
D03*
X0804005Y3215997D02*
D03*
X0810130Y3228246D02*
D03*
X0807068Y3225183D02*
D03*
X0804005Y3222121D02*
D03*
X0800943Y3219059D02*
D03*
X0659391Y3524424D02*
D03*
Y3520094D02*
D03*
X0663721Y3524424D02*
D03*
Y3520094D02*
D03*
M02*
