M48
;Layer_Color=9474304
;FILE_FORMAT=2:5
INCH
;TYPE=PLATED
T1F00S00C0.01181
T3F00S00C0.03543
T4F00S00C0.03937
;TYPE=NON_PLATED
T5F00S00C0.02756
T6F00S00C0.12600
%
T01
X0787402Y3110236
X0807087
X0826772
X0846457
X0866142
X0885827
X0905512
X0767717
X0708661
X0688976
X0669291
X0649606
X0629921
X0610236
X0590551
Y3149606
X0610236
X0620079Y3169291
X0600394
X0610236Y3188976
X0590551
X0600394Y3208662
X0620079
X0610236Y3228347
X0590551
X0600394Y3248032
X0620079
X0610236Y3267717
X0590551
X0620079Y3129921
X0639764
X0649606Y3149606
X0669291
X0679134Y3169291
X0669291Y3188976
X0649606
X0629921
X0639764Y3208662
X0649606Y3228347
X0629921
X0639764Y3248032
X0649606Y3267717
X0629921
X0679134Y3248032
X0688976Y3228347
X0679134Y3208662
X0718504
X0717107Y3212771
X0717776Y3220763
X0748032Y3228347
X0764430Y3226905
X0764036Y3222810
X0757874Y3208662
X0775769Y3200566
X0767717Y3188976
X0748032
X0752146Y3177180
X0746005Y3157220
X0767717Y3149606
X0766280Y3145487
X0757874Y3129921
X0777559
X0718504
X0698819
X0679134
X0707225Y3154149
X0718504Y3169291
X0728346Y3188976
Y3267717
X0752383Y3274582
X0752894Y3259661
X0749824Y3254582
X0768564Y3251432
X0776123Y3246669
X0769824Y3268322
X0764706Y3269503
X0764942Y3264346
X0639764Y3169291
X0629921Y3149606
X0787402
X0807087
X0816929Y3169291
X0815493Y3186432
X0807087Y3188976
X0799745Y3198637
X0818958Y3197732
X0828327Y3194695
X0827697Y3188480
X0825331Y3188322
X0824941Y3191236
X0836359Y3195370
X0835965Y3201078
X0833646Y3204972
X0838563Y3207377
X0846595Y3206984
X0846762Y3209966
X0846083Y3214858
X0853366Y3212889
X0853681Y3216999
X0853406Y3206747
X0854823Y3199740
X0848323Y3193033
X0845414Y3194779
X0834548Y3213047
X0830375Y3229267
X0835571Y3235724
X0833603Y3237692
X0834784Y3241944
X0829788Y3241275
X0827303Y3241236
X0826910Y3238874
X0824154Y3241236
X0823209Y3236551
X0819025Y3239850
X0818689Y3242909
X0818908Y3246993
X0817461Y3249503
X0814272Y3247889
X0815263Y3243993
X0825718Y3245475
X0824547Y3247929
X0828878Y3243598
X0831862Y3252338
X0825018Y3257060
X0828878Y3262495
X0826772Y3267717
X0833603Y3265763
X0831870Y3275448
X0820288Y3265249
X0814051Y3265360
X0809194Y3265173
X0806202Y3260960
X0815955Y3261708
X0815886Y3255645
X0802501Y3247377
X0800532Y3239976
X0794312Y3236269
X0791083Y3236039
X0787442Y3240921
X0783328Y3232023
X0786359Y3254543
X0786261Y3259562
X0785965Y3264385
Y3269503
X0786300Y3274562
X0786359Y3279739
X0788563Y3210346
X0800943Y3219059
X0807068
X0813192
X0816254Y3215997
X0813192Y3212934
X0810130Y3215997
X0807068Y3212934
X0804005Y3215997
Y3222121
X0810130
X0816254
X0813192Y3225183
X0807068
X0810130Y3228246
X0819317Y3219059
X0816929Y3208662
X0810130Y3209872
X0846457Y3228347
X0846541Y3241182
X0841083Y3241236
X0846201Y3247535
X0843445Y3252259
X0838629Y3257240
X0840414Y3259818
X0846457Y3267717
X0866142
X0885827
X0905512
X0915354Y3248032
X0905512Y3228347
X0885827
X0866142
X0875984Y3248032
X0850532Y3243598
X0875984Y3208662
X0895669
X0915354
X0905512Y3188976
X0885827
X0895669Y3169291
X0915354
X0905512Y3149606
X0915354Y3129921
X0875984
X0856299
X0836614
X0816929
X0797244
X0782225Y3170842
X0836614Y3169291
X0856299
X0875984
X0866142Y3149606
X0846457
X0836614Y3287402
X0875984
X0895669
X0915354
X0905512Y3307087
X0915354Y3326772
X0895669
X0875984
X0866142Y3307087
X0836614Y3326772
X0816929
X0797244
X0807087Y3307087
X0786359Y3284464
X0787402Y3354332
Y3370081
X0798150Y3370466
X0804553Y3370934
X0812143Y3370544
X0819325Y3370330
X0825729Y3370467
X0832288Y3370155
X0839547Y3369902
X0842520Y3370081
X0845985Y3370058
X0846989Y3377771
X0838583Y3377954
X0830709
X0826772Y3385829
X0818898
X0811024
Y3401577
X0813918Y3404543
X0818898Y3401577
X0829328Y3407354
X0827238Y3412108
X0838583Y3409451
X0846457
X0850394Y3401577
X0863524Y3401078
X0866142Y3401577
X0862343Y3413992
X0852451Y3415985
X0846457Y3425199
X0830709
X0821792Y3424621
X0795414Y3419503
X0795276Y3401577
Y3385829
X0787402
X0791339Y3377954
X0786359Y3430920
X0867855Y3432495
X0874016Y3433073
X0879272Y3433283
X0881890Y3433073
X0885827Y3425199
X0881890Y3417325
X0875335Y3412416
X0877953Y3409451
X0897638Y3417325
X0905512
X0913386
X0917323Y3425199
X0909449
X0913386Y3433073
X0905512
X0897638
Y3401577
X0905512
X0913386
X0917323Y3409451
X0909449
Y3393703
X0917323
X0913386Y3385829
X0905512
X0897638
X0893701Y3393703
X0881890Y3385829
X0877953Y3377954
X0881890Y3370081
X0905512
X0913386
X0917323Y3377954
X0909449
Y3362207
X0917323
X0913386Y3354332
X0905512
X0779528
X0771654
X0775591Y3362207
X0779528Y3370081
X0771654
X0775591Y3377954
X0767717
X0759843
X0763780Y3385829
X0771654
X0779528
Y3401577
X0771654
X0763780
X0755906
X0751969Y3393703
X0740158Y3401577
X0732284
X0728347Y3393703
X0720473
X0712599
X0704725
X0688977
X0692914Y3385829
X0693051Y3377456
X0692264Y3370370
X0692699Y3360061
X0692914Y3354332
X0692264Y3339267
Y3330606
Y3321944
Y3313283
Y3304622
Y3295960
X0679134Y3287402
X0669291Y3307087
X0649606
X0659449Y3326772
X0679134
X0676123Y3331314
X0677166Y3354332
X0679666Y3358873
X0679666Y3375488
X0681103Y3377954
X0679272Y3381393
X0672973Y3381787
X0669292Y3385829
X0671398Y3389267
X0665492
X0665355Y3393703
X0664311Y3396354
X0656438Y3400015
X0654863Y3404543
X0667067Y3409740
X0672579Y3410921
X0672973Y3417220
X0666674Y3416826
X0661555Y3417220
X0657619Y3420684
X0657618Y3425488
X0663918Y3424306
X0669824Y3423834
X0671005Y3427771
X0675335Y3427456
X0677697Y3425488
X0682815Y3425094
X0688977Y3425199
X0687540Y3431787
X0692658Y3434464
X0692914Y3417325
X0685040
X0681103Y3409451
X0685040Y3401577
X0672973Y3404622
X0675099Y3432220
X0641461Y3433677
X0633997Y3430355
Y3412643
X0633859Y3409451
Y3393703
X0637796Y3385829
X0648564Y3390763
X0646595Y3373834
X0645670Y3370081
X0637796
X0632421Y3371944
X0633859Y3362207
X0641733
X0653544Y3354332
X0668643Y3352968
X0669292Y3370081
X0661418
X0656832Y3372653
X0657481Y3377954
X0626122Y3349110
X0639764Y3326772
Y3287402
X0718504
X0728346Y3307087
X0738189Y3326772
X0734784Y3334464
X0737540Y3338007
X0747776Y3332574
X0757874Y3326772
X0777559
X0779666Y3304936
X0752186Y3284661
X0753681Y3343991
X0745808Y3363598
X0748471Y3367175
X0728347Y3362207
X0724410Y3370081
X0716536
X0720473Y3377954
X0716536Y3385829
X0732284
X0740158
X0743052Y3412023
X0746595Y3412416
X0743052Y3427377
X0740296Y3425409
X0737147Y3428165
X0732422Y3418716
X0723761Y3430527
X0724410Y3433073
X0704725Y3425199
X0717068Y3411629
X0758013Y3423834
X0767717Y3425199
X0771654Y3433073
X0777264Y3412653
X0733996Y3353440
X0721004Y3347929
X0721398Y3339661
X0713524Y3338086
X0708662Y3354332
X0617461Y3357771
X0609193Y3356984
X0609587Y3368401
X0614174Y3370081
X0618111Y3377954
X0622973Y3373125
X0622048Y3385829
X0614174
X0606299
X0610237Y3393703
X0618111
Y3409451
Y3425199
X0592028Y3428873
X0593052Y3432889
X0586615Y3425199
X0576516Y3423913
Y3416433
X0582678Y3417325
X0590552
X0589902Y3412810
Y3410242
X0576516Y3408559
Y3431393
X0583997Y3379506
X0589115Y3379346
X0592264Y3373913
X0582678Y3370081
X0586615Y3362207
X0594488
X0602107Y3364070
X0590552Y3354332
X0582678
X0600394Y3326772
X0620079
X0621004Y3345173
X0610236Y3307087
X0590551
X0620079Y3287402
X0606299Y3401577
X0598957Y3452180
X0594488Y3456695
X0590552Y3464569
Y3480317
X0576516Y3483755
Y3476275
Y3468795
Y3461314
Y3453834
Y3446354
Y3438874
Y3491236
X0582678Y3496065
Y3511813
X0590552
X0586615Y3519687
X0590552Y3527561
X0582678
X0586615Y3535435
X0588692Y3542997
X0582678Y3543309
X0578878Y3547141
X0586044Y3550606
X0591083Y3551866
X0599547Y3550566
X0602362Y3551183
X0610237
X0615886Y3550291
X0614705Y3561708
X0604075Y3558952
X0602894Y3569189
X0606299Y3574805
X0614174
X0622048
X0618111Y3582679
X0610237
X0602362
X0594488
X0596201Y3579425
X0594488Y3566931
X0578878Y3570763
Y3558952
X0594233Y3544779
X0598996Y3544818
X0602107Y3542023
X0604863Y3539188
X0603682Y3535251
X0606299Y3527561
X0602362Y3519687
X0606299Y3511813
X0618248Y3511708
X0622048Y3511813
X0624547Y3523519
X0606299Y3496065
X0613677Y3468957
X0615493Y3467141
X0622048Y3448821
X0629922
X0637934Y3449424
X0641150Y3447674
X0660374Y3451866
X0667068Y3450999
X0665147Y3447487
X0665191Y3440450
X0660374Y3439661
X0673879Y3437594
X0677697Y3439661
Y3445960
X0677698Y3449424
X0675335Y3452574
X0672973Y3453834
X0677697Y3455409
X0678091Y3461708
X0670217Y3462889
Y3457771
X0665492Y3455803
Y3462102
X0660768Y3461708
Y3475094
X0666280
X0670217
X0670178Y3479937
X0672973Y3480999
X0677303Y3478244
X0678484Y3474700
X0682421
X0686475Y3476661
X0688268Y3478500
X0692265Y3484003
X0687933Y3488874
X0683603Y3484543
X0667068Y3482889
X0667067Y3487299
X0662343Y3492810
X0655650Y3495960
X0650532Y3500291
X0647382Y3503047
X0643839Y3505803
X0642069Y3511119
X0639508Y3512102
X0635463Y3515261
X0633243Y3517482
X0631634Y3520370
X0630069Y3522712
X0625907Y3527850
X0627294Y3530373
X0631467Y3532181
X0628553Y3537598
X0626516Y3543598
X0625985Y3551183
X0634784Y3551866
X0637146Y3549897
X0637686Y3554415
X0636344Y3556613
X0633709Y3559533
X0633859Y3566931
X0625985
X0629922Y3574805
X0637796
X0645670
X0633859Y3582679
X0625985
X0639025Y3545492
X0642305Y3545919
X0643092Y3543474
X0645466Y3542058
X0646388Y3539661
X0643257Y3530812
X0641083Y3532181
X0641062Y3528357
X0646201Y3511314
X0652107Y3508165
X0655256Y3505409
X0665099Y3504228
X0669292Y3496065
X0675335Y3495173
X0675343Y3512092
X0672515Y3512019
X0677701Y3517865
X0677356Y3520978
X0685040Y3527561
X0691083Y3532181
X0692579Y3538165
X0683603Y3538874
X0680431Y3537202
X0678615Y3539019
X0676799Y3540835
X0674983Y3542651
X0679252Y3547775
X0680571Y3555723
X0670611Y3554228
X0665286Y3552845
X0664349Y3548322
X0659193Y3555673
X0656540Y3555948
X0653288Y3555409
X0647295Y3552959
X0661743Y3558952
X0666440Y3572572
X0683941Y3573692
X0685758Y3571876
X0687574Y3570060
X0689390Y3568244
X0687185Y3550841
X0689469Y3546944
X0696851Y3551183
X0704725
X0712599
X0716536Y3543309
X0717855Y3536039
X0725160Y3538017
X0726910Y3540369
Y3544306
X0732904Y3545715
X0733210Y3542731
X0747383Y3540369
X0746595Y3527063
Y3523519
X0752107Y3522259
X0756438Y3524228
X0756044Y3527771
X0759981Y3520370
X0765080Y3532495
X0767157Y3534842
X0765987Y3536905
X0769036Y3538794
X0767068Y3541157
X0774018Y3541923
X0777304Y3541157
X0775591Y3551183
X0769824Y3560448
X0769430Y3563992
X0756832Y3558480
X0755257Y3553362
X0751812Y3560350
X0746202Y3554935
X0739857Y3553980
X0739029Y3556662
X0724410Y3559057
X0720473Y3566931
X0712599
X0702501Y3534858
X0715887Y3526590
X0712599Y3519687
X0720473
X0724410Y3511813
X0716536
X0718643Y3506117
X0712599Y3503939
Y3488191
X0724942Y3485645
X0723721Y3483086
X0722858Y3480244
X0724410Y3496065
X0740158
X0748032
X0754469Y3492023
X0753681Y3486511
X0759981Y3488086
X0763524Y3493598
X0769036Y3498716
X0770611Y3502653
X0775591Y3503939
X0771654Y3511813
X0771881Y3534149
X0779666Y3529818
X0762343Y3548637
X0748032Y3511813
X0744095Y3503939
Y3488191
X0741083Y3483677
X0741090Y3481006
X0748032Y3480317
X0754863Y3476590
X0760768Y3474700
X0763524Y3476669
X0766674Y3480606
X0767717Y3472443
X0775591
X0779528Y3464569
X0771654
X0763780
X0756925Y3459229
X0751969Y3456695
X0744233Y3456511
X0748032Y3464569
X0736221Y3472443
X0720473Y3456695
X0712599
X0707225Y3450605
X0705257Y3447850
X0700788Y3448821
X0692914
X0696851Y3456695
X0688977
Y3440947
X0729740Y3445471
X0756758Y3445457
X0756725Y3451526
X0779528Y3448821
X0771792Y3485330
X0775729Y3489661
X0779666Y3493204
X0691649Y3499319
X0687246Y3503297
X0685178Y3511629
X0663721Y3520094
X0659391
Y3524424
X0663721
X0662343Y3479818
X0632815Y3481393
X0633859Y3472443
X0625985
X0635572Y3489976
X0637934Y3487613
X0639509Y3495094
X0642658Y3493125
X0639508Y3501472
X0631452Y3508059
X0630059Y3510921
X0799213Y3503939
X0807087
X0815887Y3506905
X0819430Y3506511
X0821792Y3503755
X0824548Y3500212
X0826772Y3496065
X0834646
X0842520
X0846457Y3488191
X0842520Y3480317
X0826772
X0818898
X0814961Y3488191
X0822835
X0830709
Y3472443
X0834646Y3464569
X0826772
X0830709Y3456695
X0828879Y3449031
X0834646Y3448821
X0846457Y3456695
X0854331
X0858268Y3464569
X0850394
X0854331Y3472443
X0862205
X0874016Y3464569
X0881890
X0885827Y3472443
X0901575
X0898957Y3477456
X0897638Y3480317
X0905805Y3480024
X0913386Y3480317
X0917323Y3488191
X0909449
X0901575
X0897638Y3496065
X0906939
X0913386
X0917323Y3503939
X0909449
X0901575
X0897638Y3511813
X0906939
X0913386
X0917323Y3519687
X0909449
X0901575
X0897638Y3527561
X0906939
X0913386
X0909449Y3535435
X0901575
X0905978Y3542843
X0913386Y3543309
X0917323Y3551183
X0908611Y3552021
X0901575Y3551183
X0897638Y3543309
X0892028Y3541433
X0888397Y3537054
X0885827Y3535435
X0888721Y3523913
X0885827Y3519687
X0881890Y3511813
X0885827Y3503939
Y3488191
Y3456695
X0877953
X0870079
X0865099Y3452180
X0866142Y3448821
X0874016
X0881890
X0885827Y3440947
X0901575
X0909449
X0917323
X0913386Y3448821
X0905512
X0897638
X0901575Y3456695
X0909449
X0917323
X0913386Y3464569
X0905512
X0897638
X0909449Y3472443
X0917323
Y3535435
X0913655Y3558788
X0905512Y3559057
X0897566
X0893051Y3560133
X0889224Y3562211
X0897638Y3574805
X0905512
X0918642Y3574700
X0893701Y3582679
X0885827
X0877953
X0870079
X0862642Y3580437
X0858012Y3581787
X0866280Y3571157
X0870020Y3551748
X0857117Y3555015
X0853524Y3550566
X0847382Y3547929
X0846457Y3535435
X0838583
X0830709
X0822835
X0826772Y3543309
X0834510Y3543173
X0831634Y3548405
X0821004Y3550291
X0816157Y3549987
X0811162Y3557377
X0809455Y3562096
X0807225Y3564070
X0807087Y3566931
X0809587Y3569976
X0804469Y3573804
X0806578Y3575979
X0808799Y3578244
X0811555Y3579818
X0806044Y3542810
X0802894Y3541629
X0802107Y3526669
X0800926Y3519503
X0812737Y3519976
X0815886Y3516039
X0819429Y3518007
X0822835Y3519687
X0823366Y3516433
X0833012Y3512593
X0837343Y3512732
X0838583Y3519687
X0846457
X0850394Y3527561
X0842520
X0834646
X0826772
X0818248Y3526669
X0810374Y3525882
X0803150Y3496065
X0799213Y3488191
X0803150Y3480317
X0799213Y3472443
X0803150Y3464569
X0799213Y3456695
X0791339
X0783465
X0787402Y3464569
Y3480317
X0814961Y3472443
X0818898Y3496065
X0838583Y3503939
X0843445Y3510133
X0858268Y3496065
X0867461Y3521865
X0861280Y3543740
X0854469Y3540842
X0838878Y3554027
X0791339Y3551183
X0783465
X0799213Y3440947
T03
X0699115Y3267283
Y3257283
Y3247283
Y3237283
Y3227283
Y3217283
Y3207283
Y3197283
Y3187283
Y3177283
X0739115
Y3187283
Y3197283
Y3207283
Y3217283
Y3227283
Y3237283
Y3247283
Y3257283
Y3267283
Y3277283
X0660375Y3131314
X0650375
X0889115Y3213283
Y3223283
Y3233283
Y3243283
Y3253283
Y3263283
Y3273283
Y3283283
Y3303283
Y3313283
Y3323283
Y3333283
Y3343283
Y3353283
X0847776Y3333283
X0837776
X0827776
X0817776
X0807776
X0797776
X0787776
X0777776
X0767776
X0757776
X0739115Y3297283
Y3287283
X0699115Y3283283
Y3293283
Y3303283
Y3313283
Y3323283
Y3333283
Y3343283
Y3353283
X0699115Y3373283
Y3383282
Y3393283
Y3403283
Y3413283
Y3423283
Y3433282
X0670375Y3333283
X0660375
X0650375
X0640375
X0613406Y3437653
Y3447653
X0611005Y3476747
X0621005
Y3486747
X0611005
Y3496747
X0621005
Y3506747
X0611005
Y3516747
X0621005
Y3526747
X0611005
Y3536747
X0621005
Y3546747
X0611005
Y3556747
X0621005
Y3566747
X0611005
X0586319Y3500960
X0672973
X0697619Y3496747
Y3486747
Y3476747
X0707619
Y3486747
Y3496747
Y3506747
X0697619
Y3516747
X0707619
Y3526747
X0697619
Y3536747
X0707619
Y3546747
X0697619
Y3556747
X0707619
Y3566747
X0697619
X0750807Y3500960
X0729351Y3465685
Y3455685
X0699115Y3443283
X0765887Y3447653
Y3437653
X0784233Y3476747
X0794233
Y3486747
X0784233
Y3496747
X0794233
Y3506747
X0784233
Y3516747
X0794233
Y3526747
X0784233
Y3536747
X0794233
Y3546747
X0784233
Y3556747
X0794233
Y3566747
X0784233
X0870847
Y3556747
Y3546747
Y3536747
Y3526747
Y3516747
Y3506747
Y3496747
Y3486747
Y3476747
X0880847
Y3486747
Y3496747
Y3506747
Y3516747
Y3526747
Y3536747
Y3546747
Y3556747
Y3566747
X0846319Y3500960
X0848485Y3447653
Y3437653
T04
X0785245Y3404818
X0802961
Y3379227
X0785245
X0871898
X0889615
Y3404818
X0871898
X0726221
X0708505
Y3379227
X0726221
X0629745
Y3404818
X0612028
Y3379227
T05
X0734674Y3119702
X0750619
T06
X0596202Y3125409
X0699115Y3163283
X0889115Y3158283
Y3125409
X0869115Y3363283
X0759115
X0596202Y3293913
M30
